<?xml version="1.0" encoding="UTF-8"?>
<!DOCTYPE svg PUBLIC "-//W3C//DTD SVG 1.1//EN" "http://www.w3.org/Graphics/SVG/1.1/DTD/svg11.dtd">
<!-- Creator: CorelDRAW 2021 (64-Bit) -->
<svg xmlns="http://www.w3.org/2000/svg" xml:space="preserve" width="1.22971in" height="1.49338in" version="1.1" style="shape-rendering:geometricPrecision; text-rendering:geometricPrecision; image-rendering:optimizeQuality; fill-rule:evenodd; clip-rule:evenodd"
viewBox="0 0 36.18 43.94"
 xmlns:xlink="http://www.w3.org/1999/xlink"
 xmlns:xodm="http://www.corel.com/coreldraw/odm/2003">
 <defs>
  <style type="text/css">
   <![CDATA[
    .fil0 {fill:#143FDB}
   ]]>
  </style>
 </defs>
 <g id="Layer_x0020_1">
  <metadata id="CorelCorpID_0Corel-Layer"/>
  <path class="fil0" d="M17.84 10.38c3.6,0 6.43,0.92 9.09,2.77 0.19,0.13 0.36,0.25 0.55,0.4 0.18,0.14 0.35,0.27 0.52,0.42 0.8,0.7 1.19,1.05 1.89,1.88 0.73,0.86 0.98,1.24 1.57,2.21 1.15,1.91 2.1,4.76 2.1,7.38l0 0.81c0,2.2 -0.72,4.69 -1.47,6.17 -0.22,0.44 -0.41,0.83 -0.65,1.24l-1.16 1.72 -1.1 1.28 -1.24 1.14c-1.6,1.24 -2.92,2.08 -4.9,2.73 -5.86,1.94 -11.88,0.28 -15.84,-3.69 -0.66,-0.66 -1.18,-1.3 -1.74,-2.07 -0.55,-0.76 -0.99,-1.59 -1.41,-2.45 -0.1,-0.2 -0.19,-0.43 -0.28,-0.66 -0.29,-0.73 -0.53,-1.42 -0.72,-2.21 -0.2,-0.84 -0.32,-1.61 -0.39,-2.48 -0.01,-0.16 0.01,-0.33 -0,-0.49 -0.01,-0.2 -0.04,-0.22 -0.05,-0.45l0.1 -1.79c0.05,-0.53 0.15,-1.16 0.27,-1.66 0.28,-1.2 0.48,-1.83 0.95,-2.92 0.79,-1.86 1.48,-2.66 2.63,-4.11 0.36,-0.45 1.48,-1.45 2,-1.87l1.13 -0.81c0.86,-0.58 2.25,-1.26 3.24,-1.61 0.51,-0.18 0.95,-0.3 1.49,-0.44 0.96,-0.24 2.21,-0.44 3.42,-0.44zm0.6 33.56l-0.93 0c-1.18,-0.03 -2.36,-0.18 -3.51,-0.48l-1.79 -0.51c-0.84,-0.28 -1.61,-0.63 -2.39,-1.02 -0.92,-0.46 -2.31,-1.36 -3.07,-2.01l-1.46 -1.32c-0.11,-0.11 -0.19,-0.18 -0.29,-0.29l-0.79 -0.91c-0.33,-0.43 -0.67,-0.83 -0.97,-1.28 -2,-3.02 -3.23,-6.26 -3.23,-10.29 0,-5.47 2.48,-9.92 5.22,-12.66 0.39,-0.39 0.73,-0.73 1.16,-1.08l0.61 -0.51c0.22,-0.18 0.42,-0.31 0.65,-0.48 2.24,-1.66 5.19,-2.77 7.97,-3.17 1.17,-0.17 1.8,-0.16 2.94,-0.16 3.45,0 7.17,1.33 9.93,3.28 0.22,0.15 0.42,0.31 0.64,0.48l1.46 1.24c0.4,0.37 0.96,1.01 1.32,1.42 0.43,0.48 1.06,1.39 1.41,1.92 0.16,0.24 0.26,0.41 0.41,0.67 0.14,0.25 0.26,0.43 0.39,0.69l0.7 1.5c0.11,0.24 0.21,0.51 0.3,0.78 1.21,3.56 1.41,6.9 0.49,10.57 -0.57,2.28 -1.51,4.15 -2.83,6.07 -0.53,0.77 -0.85,1.05 -1.26,1.57l-1.36 1.38c-0.08,0.07 -0.09,0.07 -0.18,0.14 -1.47,1.24 -2.64,2.1 -4.54,2.92 -2.14,0.92 -4.56,1.49 -7,1.56z"/>
  <path class="fil0" d="M2.02 7.28c0,0.58 0.41,0.61 1.13,0.85l2.13 0.74c0.26,0.09 0.5,0.16 0.74,0.25 0.16,0.06 1.39,0.49 1.48,0.49 0.01,0 0.2,-0.14 0.24,-0.16 0.1,-0.06 0.17,-0.1 0.25,-0.15l1.59 -0.88c0.9,-0.37 1.29,-0.61 2.36,-0.97 3.8,-1.26 7.72,-1.3 11.56,-0.23 0.94,0.26 2.18,0.74 3.05,1.18 1.18,0.59 0.78,0.63 1.83,0.16l3.44 -1.45c0.28,-0.12 2.01,-0.82 2.13,-0.92 0.35,-0.28 0.41,-0.8 -0.4,-1.06 -0.35,-0.11 -0.66,-0.21 -1,-0.35 -0.33,-0.13 -0.66,-0.21 -0.98,-0.33l-6.94 -2.4c-0.68,-0.23 -1.34,-0.48 -2,-0.7 -0.34,-0.11 -0.62,-0.22 -0.97,-0.34 -0.4,-0.13 -2.86,-1.02 -3.03,-1.02 -0.26,0 -0.86,0.31 -1.08,0.4l-14.69 6.21c-0.17,0.07 -0.38,0.15 -0.54,0.23 -0.15,0.07 -0.32,0.23 -0.32,0.45z"/>
  <path class="fil0" d="M22.6 26.96l0.27 0 0 0.04 -0.27 0 0 -0.04zm0.27 -1.62l0.01 0.01c-0,-0 -0.02,-0.01 -0.01,-0.01zm-0.63 -0.04l0.31 0 0 0.04 -0.31 0 0 -0.04zm1.53 -1.98l0.01 0.01c-0,-0 -0.02,-0.01 -0.01,-0.01zm-0.76 -0.04l0.36 0 0 0.04 -0.36 0 0 -0.04zm-2.16 1.39c-0.28,0 -0.38,-0.04 -0.67,-0.04 -2.5,0 -3.81,-0.04 -6.37,0.28 -0.6,0.08 -1.21,0.16 -1.84,0.28l-1.63 0.34c-0.1,0.04 -0.04,0.01 -0.09,0.04 0.24,0 1.06,-0.17 1.35,-0.22 0.46,-0.08 0.98,-0.13 1.44,-0.18 1,-0.12 1.95,-0.17 3.05,-0.18 0.39,-0 1.08,-0.1 1.56,-0.03l3.07 0.17c0.5,0.02 0.98,0.14 1.48,0.14l-1.53 -0.04c0,0.78 -0.05,0.58 -0.09,1.03 -0.26,0 -0.31,-0.04 -0.58,-0.04 -2.22,0 -3.66,-0.05 -5.9,0.25l-2.41 0.37c-0.23,0.05 -0.56,0.14 -0.81,0.14l1.42 -0.15c0.8,-0.1 2.19,-0.26 2.98,-0.26 0.33,0 0.49,-0.04 0.76,-0.05 1.93,-0.02 3.96,0.08 5.83,0.33 0.21,0.03 0.42,0.08 0.69,0.08l0 0.04c-0.79,0 -1.52,-0.13 -2.29,-0.13 0,0.74 0.02,0.45 -0.13,1.12 -0.67,0 -1.18,-0.04 -1.84,-0.04 -0.74,0 -1.37,0.05 -2.07,0.04 -0.41,-0 -0.67,0.05 -1.03,0.05 -0.23,-0 -0.35,0.01 -0.51,0.03 -0.18,0.02 -0.35,-0 -0.52,0.02 -0.92,0.1 -2,0.15 -2.9,0.29 -0.82,0.12 -0.65,-0.44 -0.65,-1.33l-0.34 0.02c-0.52,-0.05 -0.38,-0.54 -0.38,-1.32 -0.74,0 -0.58,-0.56 -0.58,-1.44 0,-0.28 0.24,-0.55 0.55,-0.62 0.31,-0.07 0.73,-0.1 1.03,-0.14l3.77 -0.37c0.21,-0.02 0.39,0.01 0.61,-0.02 0.37,-0.06 4,-0.11 4.42,-0.06l3.2 0.22c-0.29,0 -1.66,-0.03 -1.8,-0.09 0,1.32 -0.04,0.69 -0.22,1.48zm-2.07 -3.55c-2.45,0 -3.87,0.09 -6.29,0.49l-1.53 0.31 2.88 -0.36c4.34,-0.33 7.61,-0.09 11.84,0.6 0.27,0.04 0.45,-0 0.47,0.75 -0.25,0 -0.72,-0.09 -0.96,-0.12 -1.36,-0.18 -2.66,-0.22 -3.95,-0.37 -0.16,-0.02 -0.37,-0 -0.53,-0 -0.25,-0 -0.29,-0.04 -0.49,-0.05 -0.34,-0.02 -0.74,-0 -1.08,0 -0.41,0 -0.63,-0.05 -1.03,-0.05 -0.41,0 -0.63,0.05 -1.03,0.05 -0.35,-0 -0.73,-0.01 -1.08,-0 -0.23,0.01 -0.25,0.05 -0.49,0.05 -0.17,0 -0.36,-0.01 -0.53,0 -0.26,0.03 -0.73,0.07 -1,0.08 -1,0.05 -1.98,0.17 -2.96,0.28 -0.27,0.03 -0.67,0.12 -0.95,0.13 0,-1.23 0.91,-2.83 1.65,-3.74 0.15,-0.19 0.29,-0.31 0.42,-0.48 0.16,-0.22 0.28,-0.25 0.46,-0.44 1.16,-1.18 3.48,-2.12 5.11,-2.12l0.81 0c1.31,0 2.77,0.56 3.61,1.06 1.81,1.07 2.33,2.03 2.54,2.18 -0.06,0.09 -0.03,0.06 -0.08,-0.01l-0.17 -0.18c-0.65,-0.65 -1.13,-1 -1.94,-1.47 -0.62,-0.35 -2.02,-0.94 -2.97,-0.94 0,0.38 0.14,0.25 0.73,0.62 0.72,0.45 1.1,0.72 -0.12,1.07 -1.35,0.38 -2.68,0.22 -2.68,1.41 0,0.31 0.12,0.56 0.22,0.76 1.4,0 5.71,0.72 6.02,0.72l-2.97 -0.18c-0.22,-0.01 -0.46,0.01 -0.67,0l-1.26 -0.05zm5.98 -1.57c-0.13,-0.13 0.13,0.13 0,0zm-15.37 3.55c-0.23,0.06 -0.45,0.31 -0.58,0.5 -0.36,0.55 -0.39,2.4 0.35,2.6 0,0.44 -0.02,0.63 0.15,0.93 0.11,0.2 0.35,0.45 0.57,0.51 0,1.04 0.36,1.13 0.9,1.39l0 9.62c0.2,0.05 0.83,0.47 1.12,0.54l0 -10.24c0.28,0 0.41,-0.03 0.67,-0.05 0.17,-0.01 0.46,-0.03 0.66,-0.06 0.74,-0.11 2.12,-0.12 2.68,-0.19 0.23,-0.03 0.45,-0 0.68,-0.04l2.36 -0.02c1.32,0 2.71,0.23 4,0.27 0.44,0.01 0.85,0.09 1.35,0.09l0 10.24c0.19,-0.09 0.36,-0.14 0.55,-0.26 0.19,-0.11 0.34,-0.19 0.52,-0.28l0 -9.62c0.35,-0.08 0.48,-0.2 0.69,-0.44 0.2,-0.23 0.21,-0.54 0.21,-0.96 0.26,-0.06 0.47,-0.27 0.59,-0.49 0.15,-0.27 0.17,-0.55 0.17,-0.95 0.69,-0.46 0.54,-1.02 0.54,-1.98 0,-0.46 -0.3,-0.82 -0.62,-1.04 -0.18,-0.12 -0.15,-0.15 -0.18,-0.41 -0.09,-0.69 -0.27,-1.25 -0.49,-1.8 -0.7,-1.77 -2.09,-3.3 -3.69,-4.26 -2.36,-1.42 -5.29,-1.66 -7.89,-0.56 -0.5,0.21 -0.9,0.42 -1.33,0.69 -0.43,0.27 -1.32,0.97 -1.69,1.37l-0.92 1.14c-0.62,0.82 -1.38,2.57 -1.38,3.74z"/>
  <path class="fil0" d="M13.84 39.94c0.33,0.08 0.61,0.17 0.96,0.25 1.08,0.24 2.16,0.38 3.31,0.38 0.19,0 2.66,-2.51 2.93,-2.82l2.36 -2.67c0.11,-0.14 0.28,-0.21 0.28,-0.44l0 -5.17 -0.54 -0.05c-0.04,0.15 -0.39,0.58 -0.5,0.73l-1.06 1.41c-0.11,0.14 -0.17,0.22 -0.27,0.35 -0.11,0.13 -0.19,0.23 -0.28,0.35 -0.17,0.22 -0.36,0.43 -0.55,0.66 -0.2,0.23 -0.37,0.46 -0.58,0.68l-2.38 2.56c-0.24,0.24 -0.31,0.4 -0.6,0.61l-1.89 1.83c-0.23,0.23 -0.38,0.42 -0.61,0.65 -0.11,0.11 -0.54,0.57 -0.57,0.69z"/>
  <path class="fil0" d="M12.49 36.62c0.13,-0.05 0.67,-0.87 0.76,-1l1.57 -1.94c0.09,-0.1 0.13,-0.12 0.22,-0.23 0.42,-0.55 1.91,-2.03 2.37,-2.49 0.29,-0.29 0.58,-0.61 0.88,-0.88l0.47 -0.43c0.16,-0.16 0.32,-0.28 0.44,-0.46l-4.27 0.09c-0.22,-0 -0.65,0.01 -0.85,0.05 -0.13,0.02 -0.18,0.09 -0.26,0.19l-0.62 0.73c-0.14,0.17 -0.25,0.31 -0.38,0.47 -0.07,0.09 -0.13,0.15 -0.2,0.25 -0.09,0.12 -0.11,0.13 -0.12,0.33 -0.02,0.56 0,1.19 0,1.75 0,1.18 0,2.37 0,3.55z"/>
  <path class="fil0" d="M22.83 39.76c0.3,-0.02 0.57,-0.25 0.85,-0.27l0 -0.9c-0.06,0.04 -0.82,1.04 -0.85,1.17z"/>
 </g>
</svg>
