<svg width="737" height="245" viewBox="0 0 737 245" fill="none" xmlns="http://www.w3.org/2000/svg">
<path d="M260 79.8859H244.13V70.5859H286V79.8859H270.18V124.886H260V79.8859Z" fill="white"/>
<path d="M289.4 70.5859H299.17V91.1259H300.56C301.8 88.6459 304.83 85.7759 311.65 85.7759C320.65 85.7759 326.65 92.3659 326.65 101.896V124.846H316.88V102.676C316.88 96.8559 313.94 93.9959 308.67 93.9959C302.67 93.9959 299.21 98.1759 299.21 105.316V124.846H289.4V70.5859Z" fill="white"/>
<path d="M331.42 106.086V105.156C331.42 93.0662 339.17 85.3062 350.64 85.3062C362.11 85.3062 369.32 93.3762 369.32 105.156V108.486H341.32C341.55 113.766 345.66 117.406 351.09 117.406C356.52 117.406 358.76 114.616 360.09 111.666L368.09 115.856C365.92 119.966 361.35 125.926 350.81 125.926C339.24 125.926 331.42 118.176 331.42 106.086ZM359.42 101.206C358.95 96.7862 355.62 93.8362 350.58 93.8362C345.31 93.8362 342.13 96.8362 341.44 101.206H359.42Z" fill="white"/>
<path d="M399.24 70.5859H417.07L431.34 124.846H420.79L417.85 112.906H398.47L395.47 124.846H385L399.24 70.5859ZM415.44 103.446L408.85 76.9959H407.46L400.87 103.426L415.44 103.446Z" fill="white"/>
<path d="M434.28 86.3962H443.89V91.0462H445.29C447.07 88.1062 450.4 85.3062 457.38 85.3062C466.6 85.3062 474.74 92.4462 474.74 104.996V106.236C474.74 118.796 466.68 125.926 457.38 125.926C450.38 125.926 447.07 123.136 445.44 120.426H444.05V140.346H434.28V86.3962ZM465 105.996V105.226C465 97.7862 460.42 93.8262 454.45 93.8262C448.48 93.8262 443.91 97.8262 443.91 105.226V105.996C443.91 113.436 448.41 117.396 454.45 117.396C460.49 117.396 465 113.446 465 105.996Z" fill="white"/>
<path d="M478 106.236V104.996C478 92.5962 486.68 85.3062 498.15 85.3062C509.62 85.3062 518.31 92.5962 518.31 104.996V106.236C518.31 118.646 509.62 125.926 498.15 125.926C486.68 125.926 478 118.646 478 106.236ZM508.54 106.006V105.236C508.54 97.9962 504.2 93.9962 498.15 93.9962C492.1 93.9962 487.76 97.9962 487.76 105.236V105.996C487.76 113.206 492.18 117.236 498.15 117.236C504.12 117.236 508.54 113.216 508.54 105.996V106.006Z" fill="white"/>
<path d="M521.25 113.376L530.25 111.046C531.25 116.476 534.9 118.176 539.4 118.176C543.9 118.176 546.07 116.396 546.07 113.996C546.07 111.596 544.13 110.506 539.56 109.656L537.39 109.266C529.32 107.796 522.66 104.766 522.66 97.1762C522.66 89.5862 528.66 85.3062 537.85 85.3062C546.45 85.3062 552.35 89.4962 554.13 95.6962L545.06 98.4862C544.21 94.5362 541.57 93.0662 537.85 93.0662C534.13 93.0662 532.11 94.4562 532.11 96.7062C532.11 99.1862 534.28 100.196 537.85 100.816L540.02 101.206C548.7 102.756 555.52 105.206 555.52 113.296C555.52 121.386 549.17 125.926 539.4 125.926C529.31 125.926 522.57 121.436 521.25 113.376Z" fill="white"/>
<path d="M565.59 116.166V94.4561H556V86.3961H565.61V74.4561H575.38V86.3961H585.9V94.4561H575.36V114.456C575.36 116.006 576.13 116.786 577.53 116.786H585V124.846H574.12C569 124.846 565.59 121.436 565.59 116.166Z" fill="white"/>
<path d="M587.6 106.236V104.996C587.6 92.5962 596.29 85.3062 607.76 85.3062C619.23 85.3062 627.92 92.5962 627.92 104.996V106.236C627.92 118.646 619.23 125.926 607.76 125.926C596.29 125.926 587.6 118.646 587.6 106.236ZM618.15 106.006V105.236C618.15 97.9962 613.81 93.9962 607.76 93.9962C601.71 93.9962 597.37 97.9962 597.37 105.236V105.996C597.37 113.206 601.79 117.236 607.76 117.236C613.73 117.236 618.15 113.216 618.15 105.996V106.006Z" fill="white"/>
<path d="M633 70.5859H642.77V124.846H633V70.5859Z" fill="white"/>
<path d="M647.91 106.236V104.996C647.91 92.5962 656.59 85.3062 668.07 85.3062C679.55 85.3062 688.22 92.5962 688.22 104.996V106.236C688.22 118.646 679.54 125.926 668.07 125.926C656.6 125.926 647.91 118.646 647.91 106.236ZM678.46 106.006V105.236C678.46 97.9962 674.11 93.9962 668.07 93.9962C662.03 93.9962 657.68 97.9962 657.68 105.236V105.996C657.68 113.206 662.1 117.236 668.07 117.236C674.04 117.236 678.46 113.216 678.46 105.996V106.006Z" fill="white"/>
<path d="M691.17 113.376L700.17 111.046C701.17 116.476 704.82 118.176 709.32 118.176C713.82 118.176 716 116.396 716 113.996C716 111.596 714.06 110.506 709.49 109.656L707.32 109.266C699.26 107.796 692.59 104.766 692.59 97.1762C692.59 89.5862 698.64 85.3062 707.79 85.3062C716.39 85.3062 722.28 89.4962 724.07 95.6962L715 98.4862C714.14 94.5362 711.51 93.0662 707.79 93.0662C704.07 93.0662 702 94.4562 702 96.7062C702 99.1862 704.17 100.196 707.74 100.816L709.91 101.206C718.59 102.756 725.41 105.206 725.41 113.296C725.41 121.386 719.05 125.926 709.29 125.926C699.23 125.926 692.48 121.436 691.17 113.376Z" fill="white"/>
<path d="M245.91 202.566H253.28V163.186H245.91V155.746H273.43C283.12 155.746 289.71 161.096 289.71 169.386V170.166C289.71 177.686 284.71 180.866 281.19 181.866V183.106C283.806 183.766 286.112 185.31 287.718 187.478C289.324 189.645 290.13 192.302 290 194.996V195.776C290 204.776 283.17 210.036 273.64 210.036H245.91V202.566ZM272.58 178.846C277.85 178.846 281.34 176.056 281.34 171.476V170.706C281.34 166.206 277.93 163.346 272.58 163.346H261.65V178.846H272.58ZM272.58 202.416C278.16 202.416 281.58 199.546 281.58 194.816V194.116C281.58 189.306 278.25 186.516 272.58 186.516H261.65V202.416H272.58Z" fill="white"/>
<path d="M293.2 198.996C293.2 191.236 299.4 187.206 307.77 187.206H319.4V184.726C319.4 180.306 316.77 177.366 311.18 177.366C305.59 177.366 302.97 180.236 302.04 184.366L294.59 181.966C296.46 175.966 301.49 170.726 311.26 170.726C321.18 170.726 327.26 175.996 327.26 185.296V200.996C327.26 202.546 328.04 203.326 329.43 203.326H332.69V209.996H326.69C323.12 209.996 320.64 207.996 320.64 204.806V204.576H319.4C318.24 207.056 315.45 211.086 307.54 211.086C299.4 211.096 293.2 206.756 293.2 198.996ZM319.4 194.186V193.406H308.24C303.97 193.406 301.18 195.266 301.18 198.756C301.18 202.246 303.97 204.496 308.7 204.496C315.06 204.506 319.4 200.626 319.4 194.196V194.186Z" fill="white"/>
<path d="M336.53 171.796H344.36V176.286H345.6C346.84 173.106 349.55 171.636 353.66 171.636H358.24V178.846H353.35C348.16 178.846 344.51 181.636 344.51 187.526V209.996H336.51L336.53 171.796Z" fill="white"/>
<path d="M371.72 204.586H370.48V209.996H362.65V155.746H370.65V176.996H371.89C373.67 173.896 377.31 170.716 384.76 170.716C394.37 170.716 402.43 178.006 402.43 190.326V191.496C402.43 203.896 394.29 211.106 384.76 211.106C377.3 211.096 373.66 207.916 371.72 204.586ZM394.36 191.246V190.546C394.36 182.336 389.36 177.756 382.42 177.756C375.48 177.756 370.56 182.336 370.56 190.546V191.246C370.56 199.466 375.56 204.116 382.42 204.116C389.28 204.116 394.36 199.466 394.36 191.246Z" fill="white"/>
<path d="M406.6 191.406V190.476C406.6 178.536 414.43 170.706 425.67 170.706C436.67 170.706 444.12 178.456 444.12 190.086V193.086H414.74C414.98 199.836 419.74 204.086 426.14 204.086C432.19 204.086 434.82 200.986 436.45 197.426L443.12 200.836C440.79 205.246 436.29 211.066 425.98 211.066C414.36 211.096 406.6 203.266 406.6 191.406ZM436.06 186.996C435.6 181.256 431.57 177.766 425.6 177.766C419.63 177.766 415.6 181.256 414.82 186.996H436.06Z" fill="white"/>
<path d="M449.86 171.796H457.69V176.286H458.93C460.17 173.106 462.88 171.636 466.99 171.636H471.56V178.846H466.68C461.49 178.846 457.84 181.636 457.84 187.526V209.996H449.84L449.86 171.796Z" fill="white"/>
<path d="M490.24 189.236V176.516C490.24 162.336 498.54 154.656 511.79 154.656C524.79 154.656 532.18 162.336 532.18 174.896V175.276H523.89V174.656C523.89 167.376 520.01 162.176 511.79 162.176C503.57 162.176 498.62 167.526 498.62 176.366V189.366C498.62 198.206 503.5 203.556 511.79 203.556C520.08 203.556 523.89 198.356 523.89 191.076V189.756H532.18V190.846C532.18 203.396 524.82 211.076 511.79 211.076C498.54 211.096 490.24 203.416 490.24 189.236Z" fill="white"/>
<path d="M536 191.776V190.606C536 178.516 544.29 170.996 555.76 170.996C567.23 170.996 575.61 178.516 575.61 190.606V191.776C575.61 203.946 567.24 211.386 555.76 211.386C544.28 211.386 536 203.946 536 191.776ZM567.63 191.536V190.836C567.63 182.936 562.82 178.126 555.76 178.126C548.7 178.126 544 182.936 544 190.836V191.536C544 199.536 548.81 204.256 555.78 204.256C562.75 204.256 567.61 199.526 567.61 191.536H567.63Z" fill="white"/>
<path d="M581.63 155.746H589.63V209.996H581.63V155.746Z" fill="white"/>
<path d="M597.6 155.746H605.6V209.996H597.6V155.746Z" fill="white"/>
<path d="M611.71 191.406V190.476C611.71 178.536 619.54 170.706 630.78 170.706C641.78 170.706 649.23 178.456 649.23 190.086V193.086H619.85C620.08 199.836 624.85 204.086 631.25 204.086C637.25 204.086 639.93 200.986 641.56 197.426L648.22 200.836C645.9 205.246 641.4 211.066 631.09 211.066C619.46 211.096 611.71 203.266 611.71 191.406ZM641.17 186.996C640.7 181.256 636.67 177.766 630.7 177.766C624.73 177.766 620.7 181.256 619.93 186.996H641.17Z" fill="white"/>
<path d="M653.1 189.926C653.1 177.926 661.17 170.706 670.86 170.706C678.3 170.706 681.94 174.116 683.8 177.296H685V171.796H692.75V217.796C692.75 222.526 689.81 225.476 685.08 225.476H659.38V218.476H682.64C682.953 218.52 683.272 218.49 683.571 218.387C683.87 218.285 684.14 218.113 684.359 217.885C684.579 217.658 684.742 217.382 684.834 217.079C684.926 216.777 684.945 216.457 684.89 216.146V203.996H683.65C681.94 206.996 678.38 210.206 670.86 210.206C661.17 210.206 653.1 202.996 653.1 191.056V189.926ZM684.96 190.866V190.166C684.96 182.336 679.96 177.756 673.03 177.756C666.1 177.756 661.17 182.336 661.17 190.166V190.866C661.17 198.696 666.17 203.266 673.03 203.266C679.89 203.266 685 198.696 685 190.866H684.96Z" fill="white"/>
<path d="M698.84 191.406V190.476C698.84 178.536 706.67 170.706 717.91 170.706C728.91 170.706 736.36 178.456 736.36 190.086V193.086H707C707.23 199.836 712 204.086 718.39 204.086C724.39 204.086 727.08 200.986 728.7 197.426L735.37 200.836C733.05 205.246 728.55 211.066 718.24 211.066C706.59 211.096 698.84 203.266 698.84 191.406ZM728.3 186.996C727.83 181.256 723.8 177.766 717.83 177.766C711.86 177.766 707.83 181.256 707.06 186.996H728.3Z" fill="white"/>
<path d="M149 128.446C148.07 118.256 143.09 108.146 135 100.246C125.849 91.2007 113.507 86.1181 100.64 86.0957H100.41C87.5584 86.1361 75.2356 91.2168 66.09 100.246C57.98 108.146 52.99 118.246 52.09 128.446C50.8338 129.06 49.771 130.008 49.0178 131.187C48.2647 132.365 47.8503 133.728 47.82 135.126V140.196C47.8072 141.315 48.0921 142.418 48.6456 143.392C49.1991 144.365 50.0012 145.174 50.97 145.736V147.736C50.9634 148.573 51.1227 149.404 51.4384 150.18C51.7542 150.955 52.2204 151.661 52.81 152.256C53.4279 152.88 54.1756 153.362 55 153.666V155.186C54.9909 156.629 55.4851 158.031 56.3977 159.15C57.3102 160.269 58.584 161.034 60 161.316V214.736C61.93 215.846 63.91 216.886 65.93 217.816V160.996C70.93 160.436 76.01 159.996 81.05 159.666L86.32 159.386C94.6137 158.647 102.952 158.557 111.26 159.116C122.85 159.976 132.26 160.746 134.11 160.886H134.45C134.68 160.886 134.91 160.936 135.15 160.956V217.826C137.15 216.896 139.15 215.826 141.08 214.746V161.316C142.495 161.033 143.768 160.266 144.68 159.148C145.592 158.03 146.087 156.629 146.08 155.186V153.666C147.286 153.215 148.324 152.402 149.05 151.339C149.777 150.275 150.158 149.013 150.14 147.726V145.776C150.601 145.494 151.028 145.158 151.41 144.776C152.615 143.557 153.288 141.91 153.28 140.196V135.126C153.253 133.726 152.839 132.36 152.084 131.181C151.328 130.002 150.261 129.055 149 128.446ZM117.09 129.156C117.616 131.927 117.148 134.795 115.77 137.256C114.38 137.176 112.95 137.106 111.52 137.086C110.09 137.066 108.62 137.006 107.16 136.946C105.7 136.886 104.26 136.946 102.8 136.946C99.87 136.946 96.98 137.056 94.1 137.146C91.22 137.236 88.4 137.486 85.68 137.656C82.96 137.826 80.34 138.176 77.86 138.466L74.23 138.876C73.07 139.076 71.96 139.246 70.87 139.426C68.73 139.766 66.73 140.056 64.99 140.426L60.51 141.366C58.88 141.726 57.7 141.956 57.1 142.086L60.54 141.516C61.78 141.316 63.31 141.036 65.05 140.746C66.79 140.456 68.8 140.276 70.94 140.016C72.03 139.906 73.16 139.766 74.32 139.606C75.48 139.446 76.7 139.446 77.95 139.336C80.43 139.156 83.06 138.886 85.75 138.856C88.44 138.826 91.29 138.606 94.13 138.656C96.97 138.706 99.87 138.656 102.78 138.796L107.11 138.976C108.54 139.066 109.96 139.156 111.39 139.266C114.23 139.406 117.02 139.746 119.72 139.996C122.42 140.246 125.01 140.636 127.47 140.996C128.67 141.196 129.8 141.376 130.92 141.516C123.11 140.896 115.02 140.376 115.02 140.376C115.184 142.289 114.952 144.216 114.34 146.036C113.13 145.986 111.89 145.896 110.64 145.876C108.02 145.786 105.34 145.696 102.64 145.736C99.94 145.776 97.28 145.826 94.64 145.896C92 145.966 89.42 146.186 86.92 146.326C84.42 146.466 82.01 146.736 79.74 147.016C77.47 147.296 75.29 147.556 73.31 147.846C71.33 148.136 69.52 148.446 67.93 148.716C66.34 148.986 64.93 149.286 63.78 149.506C61.78 149.916 60.53 150.166 60.25 150.216C60.53 150.216 61.8 149.986 63.8 149.666C64.96 149.486 66.36 149.236 67.97 149.036L73.38 148.416C75.38 148.196 77.52 148.036 79.81 147.846C82.1 147.656 84.49 147.606 86.99 147.486C89.49 147.366 92.05 147.346 94.66 147.376C97.27 147.406 99.95 147.376 102.59 147.556C105.23 147.736 107.88 147.846 110.51 148.026C111.79 148.106 113.1 148.256 114.37 148.356C115.64 148.456 116.9 148.616 118.14 148.776C119.38 148.936 120.57 149.056 121.76 149.216L125.23 149.696C127.23 150.006 129.23 150.346 131.04 150.696C122.76 149.966 112.76 149.336 112.76 149.336C112.965 151.49 112.621 153.661 111.76 155.646C108.02 155.516 104.27 155.426 100.52 155.426C87.5224 155.436 74.5377 156.247 61.64 157.856C61.5168 157.864 61.3932 157.864 61.27 157.856C60.9237 157.863 60.5795 157.799 60.2584 157.669C59.9373 157.539 59.6459 157.345 59.4019 157.099C59.1579 156.854 58.9663 156.561 58.8388 156.239C58.7113 155.917 58.6505 155.572 58.66 155.226V150.316L57.71 150.446H57.26C56.9046 150.455 56.5509 150.392 56.2207 150.261C55.8905 150.129 55.5907 149.931 55.3398 149.679C55.0888 149.427 54.892 149.126 54.7613 148.796C54.6307 148.465 54.569 148.111 54.58 147.756V142.996C54.4502 143.005 54.3198 143.005 54.19 142.996C53.8244 143.003 53.4612 142.935 53.1228 142.797C52.7844 142.658 52.4779 142.452 52.2222 142.191C51.9665 141.929 51.7669 141.618 51.6358 141.277C51.5048 140.936 51.4449 140.571 51.46 140.206V135.136C51.4859 134.243 51.8165 133.386 52.3968 132.708C52.9772 132.029 53.7723 131.57 54.65 131.406C82.5112 127.297 110.799 126.961 138.75 130.406C129.36 129.606 117.06 129.156 117.06 129.156H117.09ZM100.55 124.406C85.4931 124.404 70.4552 125.474 55.55 127.606C58 107.786 77 89.4557 100.41 89.4557H100.64C108.382 89.5272 115.983 91.5358 122.75 95.2982C129.516 99.0606 135.234 104.457 139.38 110.996C132.007 101.357 121.172 94.9659 109.17 93.1757C108.17 93.0357 108.02 94.0557 108.88 94.5157C117.88 99.5157 121.37 101.256 102.95 104.516C95.53 105.856 96.3 110.826 98.04 114.516C98.98 114.586 99.95 114.646 100.91 114.746C103.15 114.966 105.38 115.106 107.58 115.356C109.78 115.606 111.94 115.826 113.99 116.076C116.04 116.326 118.1 116.626 119.99 116.876C121.88 117.126 123.71 117.416 125.35 117.666C128.68 118.126 131.41 118.666 133.35 118.986C135.29 119.306 136.35 119.506 136.35 119.506L133.29 119.216C131.35 119.036 128.58 118.736 125.24 118.516L119.86 118.126C117.95 118.036 115.95 117.916 113.86 117.826C111.77 117.736 109.6 117.666 107.41 117.586C105.22 117.506 103.01 117.496 100.78 117.466C99.62 117.466 98.45 117.466 97.29 117.466C96.56 117.466 95.83 117.556 95.1 117.576C92.43 117.666 89.82 117.876 87.29 118.086C84.76 118.296 82.29 118.536 80 118.806C78.84 118.926 77.71 119.056 76.64 119.196C75.57 119.336 74.48 119.506 73.48 119.646C71.48 119.966 69.63 120.236 68.01 120.506C66.39 120.776 65.01 121.096 63.83 121.326C62.31 121.626 61.22 121.846 60.65 121.946C61.22 121.876 62.31 121.696 63.85 121.466C65.03 121.286 66.44 121.096 68.06 120.826C69.68 120.556 71.55 120.446 73.57 120.216C74.57 120.106 75.57 119.986 76.71 119.876C77.85 119.766 78.91 119.736 80.07 119.626C82.37 119.486 84.8 119.286 87.34 119.236C89.88 119.186 92.49 119.036 95.13 119.056H99.13C100.49 119.056 101.83 119.056 103.13 119.146C105.83 119.146 108.53 119.346 111.13 119.486C113.73 119.626 116.38 119.846 118.9 120.026C121.42 120.206 123.83 120.486 126.12 120.756C128.41 121.026 130.59 121.276 132.59 121.596C136.59 122.126 139.88 122.706 142.2 123.126C143.2 123.326 144.08 123.486 144.67 123.616C144.999 124.932 145.243 126.268 145.4 127.616C130.535 125.486 115.537 124.413 100.52 124.406H100.55Z" fill="white"/>
<path d="M57.0699 142.076L56.6399 142.146C56.7844 142.131 56.928 142.108 57.0699 142.076Z" fill="#3F3F3F"/>
<path d="M78.2901 191.996C85.8135 182.984 93.8926 174.451 102.48 166.446C103.88 165.146 105.22 163.846 106.56 162.556C96.9101 162.286 87.2601 162.766 77.6301 163.376L76.9901 164.096C76.9382 164.145 76.8913 164.198 76.8501 164.256C76.729 164.379 76.6155 164.509 76.5101 164.646C76.1301 165.056 75.8101 165.446 75.8101 165.446C73.5901 168.006 71.5067 170.556 69.5601 173.096V203.666C71.1301 201.286 72.8801 198.876 74.7601 196.426C74.8401 196.346 74.9301 196.216 75.0201 196.106C76.1101 194.806 77.7201 192.746 78.1701 192.156C78.2164 192.108 78.2567 192.054 78.2901 191.996Z" fill="white"/>
<path d="M117.95 175.356C117.78 175.576 117.53 175.876 117.22 176.256C115.76 178.016 113.04 181.256 111.7 182.846C111.61 182.956 111.52 183.036 111.45 183.126L111.17 183.456C111.103 183.534 111.043 183.618 110.99 183.706C103.577 192.307 95.7234 200.518 87.46 208.306C87.35 208.416 87.22 208.516 87.12 208.626C84.1267 211.466 81.3133 214.329 78.68 217.216L77.94 218.046L76 220.206C83.6708 222.534 91.6439 223.713 99.66 223.706H100.23L101.62 222.366C105.22 218.966 108.62 215.596 111.92 212.216L112.63 211.496C113.72 210.396 115.26 208.746 115.95 208.016L116.27 207.686C120.4 203.286 126.27 196.606 130.56 191.596V162.206L127.9 161.996C125.14 165.816 121.28 171.206 117.95 175.356Z" fill="white"/>
<path d="M130.73 219.606V214.996C129.23 217.056 127.66 219.176 126 221.376C127.61 220.846 129.18 220.256 130.73 219.606Z" fill="white"/>
<path d="M100.52 35.7359C116.758 35.7231 132.788 39.3846 147.41 46.4459C149.34 47.3759 151.23 48.3859 153.09 49.4459L188.09 34.6659C188.649 34.4297 189.124 34.0293 189.451 33.5177C189.778 33.0061 189.942 32.4074 189.921 31.8006C189.9 31.1938 189.696 30.6075 189.335 30.1192C188.975 29.631 188.474 29.2637 187.9 29.0659L104.45 0.165921C103.749 -0.0773237 102.983 -0.0523858 102.3 0.235921L13 37.9959C12.4373 38.2304 11.9595 38.6307 11.63 39.1436C11.3006 39.6564 11.1351 40.2574 11.1558 40.8666C11.1764 41.4758 11.3821 42.0642 11.7455 42.5536C12.1089 43.043 12.6128 43.41 13.19 43.6059L41.48 53.3959C43.22 52.2159 45 51.0959 46.87 49.9959C63.1912 40.6148 81.6948 35.6966 100.52 35.7359Z" fill="white"/>
<path d="M144.15 52.9407C128.826 45.5667 111.882 42.1998 94.9035 43.1548C77.9246 44.1098 61.4653 49.3554 47.0649 58.4012C32.6646 67.447 20.7938 79.9973 12.5628 94.8784C4.33171 109.759 0.00937213 126.485 0 143.491C0.0680437 162.4 5.43671 180.911 15.4964 196.922C25.5561 212.934 39.9037 225.804 56.91 234.071C59.21 235.181 61.32 236.071 63.16 236.811C64.39 237.331 65.7 237.811 67.16 238.331C68.62 238.851 70.16 239.331 71.61 239.791L71.97 239.901L72.56 240.061C74.2 240.541 75.76 240.951 77.28 241.291C78.04 241.491 78.81 241.651 79.46 241.791L81.8 242.261C82.51 242.421 83.24 242.521 83.98 242.651C85.89 242.971 87.64 243.201 89.25 243.381C92.9989 243.798 96.768 244.008 100.54 244.011C106.78 244.016 113.007 243.44 119.14 242.291L119.87 242.151C120.55 242.021 121.23 241.881 121.87 241.721L122.31 241.631C123.56 241.361 124.8 241.061 125.94 240.761C128.41 240.131 130.94 239.381 133.32 238.521C133.64 238.431 133.96 238.311 134.27 238.201C135.34 237.831 136.48 237.381 137.7 236.881C139.7 236.111 141.79 235.181 144.15 234.071C161.191 225.855 175.568 212.999 185.63 196.978C195.692 180.958 201.029 162.424 201.029 143.506C201.029 124.588 195.692 106.054 185.63 90.0331C175.568 74.0127 161.191 61.1561 144.15 52.9407ZM138 221.171C136 222.171 134.21 222.911 132.4 223.621C131.4 224.011 130.4 224.411 129.4 224.751L128.83 224.961C126.72 225.691 124.58 226.361 122.32 226.961C121.32 227.221 120.32 227.481 119.23 227.711L118.7 227.811L117.59 228.061L117.04 228.171C108.39 229.822 99.5405 230.159 90.79 229.171C89.4 229.011 87.91 228.811 86.25 228.521C85.73 228.451 85.2 228.361 84.68 228.261L84.37 228.191C83.77 228.081 83.18 227.971 82.45 227.811C81.72 227.651 81.27 227.561 80.68 227.421L80.48 227.361C79.21 227.081 77.89 226.741 76.48 226.361L76.17 226.291L75.67 226.131C74.41 225.731 73.15 225.341 71.89 224.891C70.63 224.441 69.72 224.111 68.49 223.611C66.83 222.951 65.04 222.181 63.08 221.231C47.8903 213.919 35.1765 202.316 26.5105 187.857C17.8446 173.397 13.6066 156.714 14.3205 139.872C15.0344 123.029 20.669 106.765 30.5275 93.0904C40.386 79.4158 54.0361 68.9304 69.79 62.9307C82.848 57.9402 96.9236 56.1996 110.804 57.8589C124.684 59.5181 137.953 64.5275 149.467 72.4552C160.98 80.383 170.394 90.9914 176.896 103.366C183.398 115.741 186.793 129.512 186.79 143.491C186.729 159.704 182.126 175.577 173.502 189.307C164.878 203.037 152.579 214.076 138 221.171Z" fill="white"/>
</svg>
