<svg xmlns="http://www.w3.org/2000/svg" viewBox="0 0 736.36 244.28"><defs><style>.cls-1{fill:#161616;}.cls-2{fill:none;}.cls-3{fill:#3f3f3f;}.cls-4{fill:#143fdb;}</style></defs><title>Asset 6 </title><g id="Layer_2" data-name="Layer 2"><g id="Layer_1-2" data-name="Layer 1"><path class="cls-1" d="M260,79.89H244.13v-9.3H286v9.3H270.18v45H260Z"/><path class="cls-1" d="M289.4,70.59h9.77V91.13h1.39c1.24-2.48,4.27-5.35,11.09-5.35,9,0,15,6.59,15,16.12v22.95h-9.77V102.68c0-5.82-2.94-8.68-8.21-8.68-6,0-9.46,4.18-9.46,11.32v19.53H289.4Z"/><path class="cls-1" d="M331.42,106.09v-.93c0-12.09,7.75-19.85,19.22-19.85s18.68,8.07,18.68,19.85v3.33h-28c.23,5.28,4.34,8.92,9.77,8.92s7.67-2.79,9-5.74l8,4.19c-2.17,4.11-6.74,10.07-17.28,10.07C339.24,125.93,331.42,118.18,331.42,106.09Zm28-4.88c-.47-4.42-3.8-7.37-8.84-7.37-5.27,0-8.45,3-9.14,7.37Z"/><path class="cls-1" d="M399.24,70.59h17.83l14.27,54.26H420.79l-2.94-11.94H398.47l-3,11.94H385Zm16.2,32.86L408.85,77h-1.39l-6.59,26.43Z"/><path class="cls-1" d="M434.28,86.4h9.61v4.65h1.4c1.78-2.94,5.11-5.74,12.09-5.74,9.22,0,17.36,7.14,17.36,19.69v1.24c0,12.56-8.06,19.69-17.36,19.69-7,0-10.31-2.79-11.94-5.5h-1.39v19.92h-9.77ZM465,106v-.77c0-7.44-4.58-11.4-10.55-11.4s-10.54,4-10.54,11.4V106c0,7.44,4.5,11.4,10.54,11.4S465,113.45,465,106Z"/><path class="cls-1" d="M478,106.24V105c0-12.4,8.68-19.69,20.15-19.69S518.31,92.6,518.31,105v1.24c0,12.41-8.69,19.69-20.16,19.69S478,118.65,478,106.24Zm30.54-.23v-.77C508.54,98,504.2,94,498.15,94s-10.39,4-10.39,11.24V106c0,7.21,4.42,11.24,10.39,11.24S508.54,113.22,508.54,106Z"/><path class="cls-1" d="M521.25,113.38l9-2.33c1,5.43,4.65,7.13,9.15,7.13s6.67-1.78,6.67-4.18-1.94-3.49-6.51-4.34l-2.17-.39c-8.07-1.47-14.73-4.5-14.73-12.09s6-11.87,15.19-11.87c8.6,0,14.5,4.19,16.28,10.39l-9.07,2.79c-.85-3.95-3.49-5.42-7.21-5.42s-5.74,1.39-5.74,3.64c0,2.48,2.17,3.49,5.74,4.11l2.17.39c8.68,1.55,15.5,4,15.5,12.09s-6.35,12.63-16.12,12.63C529.31,125.93,522.57,121.44,521.25,113.38Z"/><path class="cls-1" d="M565.59,116.17V94.46H556V86.4h9.61V74.46h9.77V86.4H585.9v8.06H575.36v20c0,1.55.77,2.33,2.17,2.33H585v8.06H574.12C569,124.85,565.59,121.44,565.59,116.17Z"/><path class="cls-1" d="M587.6,106.24V105c0-12.4,8.69-19.69,20.16-19.69S627.92,92.6,627.92,105v1.24c0,12.41-8.69,19.69-20.16,19.69S587.6,118.65,587.6,106.24Zm30.55-.23v-.77C618.15,98,613.81,94,607.76,94s-10.39,4-10.39,11.24V106c0,7.21,4.42,11.24,10.39,11.24S618.15,113.22,618.15,106Z"/><path class="cls-1" d="M633,70.59h9.77v54.26H633Z"/><path class="cls-1" d="M647.91,106.24V105c0-12.4,8.68-19.69,20.16-19.69S688.22,92.6,688.22,105v1.24c0,12.41-8.68,19.69-20.15,19.69S647.91,118.65,647.91,106.24Zm30.55-.23v-.77C678.46,98,674.11,94,668.07,94s-10.39,4-10.39,11.24V106c0,7.21,4.42,11.24,10.39,11.24S678.46,113.22,678.46,106Z"/><path class="cls-1" d="M691.17,113.38l9-2.33c1,5.43,4.65,7.13,9.15,7.13S716,116.4,716,114s-1.94-3.49-6.51-4.34l-2.17-.39c-8.06-1.47-14.73-4.5-14.73-12.09s6.05-11.87,15.2-11.87c8.6,0,14.49,4.19,16.28,10.39L715,98.49c-.86-3.95-3.49-5.42-7.21-5.42S702,94.46,702,96.71c0,2.48,2.17,3.49,5.74,4.11l2.17.39c8.68,1.55,15.5,4,15.5,12.09s-6.36,12.63-16.12,12.63C699.23,125.93,692.48,121.44,691.17,113.38Z"/><path class="cls-1" d="M245.91,202.57h7.37V163.19h-7.37v-7.44h27.52c9.69,0,16.28,5.35,16.28,13.64v.78c0,7.52-5,10.7-8.52,11.7v1.24A11.68,11.68,0,0,1,290,195v.78c0,9-6.83,14.26-16.36,14.26H245.91Zm26.67-23.72c5.27,0,8.76-2.79,8.76-7.37v-.77c0-4.5-3.41-7.36-8.76-7.36H261.65v15.5Zm0,23.57c5.58,0,9-2.87,9-7.6v-.7c0-4.81-3.33-7.6-9-7.6H261.65v15.9Z"/><path class="cls-1" d="M293.2,199c0-7.76,6.2-11.79,14.57-11.79H319.4v-2.48c0-4.42-2.63-7.36-8.22-7.36s-8.21,2.87-9.14,7l-7.45-2.4c1.87-6,6.9-11.24,16.67-11.24,9.92,0,16,5.27,16,14.57V201c0,1.55.78,2.33,2.17,2.33h3.26V210h-6c-3.57,0-6.05-2-6.05-5.19v-.23H319.4c-1.16,2.48-3.95,6.51-11.86,6.51C299.4,211.1,293.2,206.76,293.2,199Zm26.2-4.81v-.78H308.24c-4.27,0-7.06,1.86-7.06,5.35s2.79,5.74,7.52,5.74C315.06,204.51,319.4,200.63,319.4,194.2Z"/><path class="cls-1" d="M336.53,171.8h7.83v4.49h1.24c1.24-3.18,3.95-4.65,8.06-4.65h4.58v7.21h-4.89c-5.19,0-8.84,2.79-8.84,8.68V210h-8Z"/><path class="cls-1" d="M371.72,204.59h-1.24V210h-7.83V155.75h8V177h1.24c1.78-3.1,5.42-6.28,12.87-6.28,9.61,0,17.67,7.29,17.67,19.61v1.17c0,12.4-8.14,19.61-17.67,19.61C377.3,211.1,373.66,207.92,371.72,204.59Zm22.64-13.34v-.7c0-8.21-5-12.79-11.94-12.79s-11.86,4.58-11.86,12.79v.7c0,8.22,5,12.87,11.86,12.87S394.36,199.47,394.36,191.25Z"/><path class="cls-1" d="M406.6,191.41v-.93c0-11.94,7.83-19.77,19.07-19.77,11,0,18.45,7.75,18.45,19.38v3H414.74c.24,6.75,5,11,11.4,11,6.05,0,8.68-3.1,10.31-6.66l6.67,3.41c-2.33,4.41-6.83,10.23-17.14,10.23C414.36,211.1,406.6,203.27,406.6,191.41ZM436.06,187c-.46-5.74-4.49-9.23-10.46-9.23s-10,3.49-10.78,9.23Z"/><path class="cls-1" d="M449.86,171.8h7.83v4.49h1.24c1.24-3.18,3.95-4.65,8.06-4.65h4.57v7.21h-4.88c-5.19,0-8.84,2.79-8.84,8.68V210h-8Z"/><path class="cls-1" d="M490.24,189.24V176.52c0-14.18,8.3-21.86,21.55-21.86,13,0,20.39,7.68,20.39,20.24v.38h-8.29v-.62c0-7.28-3.88-12.48-12.1-12.48s-13.17,5.35-13.17,14.19v13c0,8.84,4.88,14.19,13.17,14.19s12.1-5.2,12.1-12.48v-1.32h8.29v1.09c0,12.55-7.36,20.23-20.39,20.23C498.54,211.1,490.24,203.42,490.24,189.24Z"/><path class="cls-1" d="M536,191.49v-1.17c0-12.09,8.29-19.61,19.76-19.61s19.85,7.52,19.85,19.61v1.17c0,12.17-8.37,19.61-19.85,19.61S536,203.66,536,191.49Zm31.63-.24v-.7c0-7.9-4.81-12.71-11.87-12.71S544,182.65,544,190.55v.7c0,8,4.81,12.72,11.78,12.72S567.61,199.24,567.61,191.25Z"/><path class="cls-1" d="M581.63,155.75h8V210h-8Z"/><path class="cls-1" d="M597.6,155.75h8V210h-8Z"/><path class="cls-1" d="M611.71,191.41v-.93c0-11.94,7.83-19.77,19.07-19.77,11,0,18.45,7.75,18.45,19.38v3H619.85c.23,6.75,5,11,11.4,11,6,0,8.68-3.1,10.31-6.66l6.66,3.41c-2.32,4.41-6.82,10.23-17.13,10.23C619.46,211.1,611.71,203.27,611.71,191.41ZM641.17,187c-.47-5.74-4.5-9.23-10.47-9.23s-10,3.49-10.77,9.23Z"/><path class="cls-1" d="M653.1,189.93c0-12,8.07-19.22,17.76-19.22,7.44,0,11.08,3.41,12.94,6.59H685v-5.5h7.75v46c0,4.73-2.94,7.68-7.67,7.68H659.38v-7h23.26a2,2,0,0,0,2.25-2.33V204h-1.24c-1.71,3-5.27,6.21-12.79,6.21-9.69,0-17.76-7.21-17.76-19.15Zm31.86.94v-.7c0-7.83-5-12.41-11.93-12.41s-11.86,4.58-11.86,12.41v.7c0,7.83,5,12.4,11.86,12.4S685,198.7,685,190.87Z"/><path class="cls-1" d="M698.84,191.41v-.93c0-11.94,7.83-19.77,19.07-19.77,11,0,18.45,7.75,18.45,19.38v3H707c.23,6.75,5,11,11.39,11,6,0,8.69-3.1,10.31-6.66l6.67,3.41c-2.32,4.41-6.82,10.23-17.13,10.23C706.59,211.1,698.84,203.27,698.84,191.41ZM728.3,187c-.47-5.74-4.5-9.23-10.47-9.23s-10,3.49-10.77,9.23Z"/><path class="cls-2" d="M142.29,123.1c-2.32-.42-5.61-1-9.61-1.53-2-.32-4.16-.57-6.47-.84s-4.72-.48-7.22-.73-5.12-.43-7.77-.54-5.34-.3-8-.34c-1.34,0-2.68-.05-4-.09l-4,0c-2.64,0-5.25.07-7.79.18s-5,.25-7.27.39c-1.16.11-2.27.18-3.36.25s-2.14.23-3.14.34c-2,.23-3.88.41-5.51.61s-3,.46-4.21.64c-1.54.23-2.63.41-3.2.48.57-.1,1.66-.32,3.18-.62,1.16-.23,2.57-.52,4.18-.82s3.48-.54,5.47-.86c1-.14,2.05-.32,3.16-.45s2.2-.27,3.36-.39c2.3-.27,4.75-.57,7.29-.72s5.14-.42,7.81-.51c.73,0,1.46-.08,2.19-.11,1.16,0,2.33,0,3.49,0,2.23,0,4.45,0,6.63.12s4.35.11,6.45.24,4.09.21,6,.3l5.38.39c3.34.22,6.11.52,8.05.7l3.06.29s-1.09-.2-3-.52-4.66-.86-8-1.32c-1.64-.25-3.44-.52-5.36-.79s-3.91-.54-6-.8-4.23-.47-6.41-.72-4.43-.39-6.67-.61c-1-.1-1.93-.16-2.87-.23-1.74-3.64-2.51-8.61,4.91-10,18.42-3.27,14.88-5,5.93-10-.86-.46-.68-1.48.29-1.34A46.71,46.71,0,0,1,139.38,111a46.38,46.38,0,0,0-38.74-21.57h-.23C77,89.46,58,107.79,55.55,127.61a317.58,317.58,0,0,1,89.94,0,31.45,31.45,0,0,0-.73-4C144.17,123.46,143.33,123.3,142.29,123.1Z"/><path class="cls-2" d="M54.65,131.4a3.91,3.91,0,0,0-3.19,3.73v5.07A2.68,2.68,0,0,0,54.19,143a2.72,2.72,0,0,0,.39,0v4.78a2.61,2.61,0,0,0,2.68,2.69h.45l.95-.13v4.91a2.56,2.56,0,0,0,2.61,2.63,2.6,2.6,0,0,0,.37,0,316.21,316.21,0,0,1,38.88-2.43c3.75,0,7.5.09,11.24.22a12.8,12.8,0,0,0,1-6.31s10,.63,18.28,1.36c-1.83-.32-3.76-.66-5.81-1l-3.47-.48c-1.19-.16-2.41-.28-3.62-.44s-2.51-.29-3.77-.42-2.58-.25-3.86-.33c-2.63-.18-5.27-.4-7.92-.47s-5.31-.16-7.93-.18-5.18.06-7.67.11-4.89.2-7.18.36-4.45.35-6.43.57L68,149c-1.61.2-3,.45-4.17.63-2,.32-3.27.52-3.55.55.28,0,1.55-.3,3.53-.71,1.15-.22,2.54-.54,4.15-.79s3.41-.57,5.38-.87,4.14-.54,6.43-.83,4.7-.44,7.18-.69,5.09-.36,7.72-.43,5.32-.18,8-.16,5.36.05,8,.14c1.25,0,2.49.11,3.7.16a14,14,0,0,0,.68-5.66s8.09.52,15.9,1.14c-1.12-.14-2.25-.32-3.45-.52-2.46-.32-5-.68-7.75-1s-5.49-.59-8.33-.73c-1.43-.11-2.85-.2-4.28-.29l-4.33-.18c-2.91-.14-5.79-.12-8.65-.14s-5.64.12-8.38.2-5.32.3-7.8.48c-1.25.11-2.45.19-3.63.27s-2.29.3-3.38.41c-2.14.26-4.12.46-5.89.73s-3.27.57-4.51.77l-3.44.57a3.83,3.83,0,0,1-.43.07l.43-.07c.6-.13,1.78-.36,3.41-.72l4.48-.94c1.74-.34,3.74-.63,5.88-1,1.09-.18,2.2-.35,3.36-.55l3.63-.41c2.48-.29,5.09-.64,7.82-.81s5.54-.46,8.42-.51,5.77-.24,8.7-.2c1.46,0,2.91,0,4.36,0s2.91.09,4.36.14,2.86.09,4.25.17a12,12,0,0,0,1.32-8.1s12.3.45,21.69,1.23a313.58,313.58,0,0,0-84.1,1Z"/><path class="cls-3" d="M111.78,185.55v0Z"/><path class="cls-4" d="M149,128.45c-.93-10.19-5.91-20.3-14-28.2A49,49,0,0,0,100.64,86.1h-.23a49.07,49.07,0,0,0-34.32,14.15c-8.11,7.9-13.1,18-14,28.2a7.62,7.62,0,0,0-4.27,6.68v5.07a6.32,6.32,0,0,0,3.15,5.54v2a6.35,6.35,0,0,0,1.84,4.52A6,6,0,0,0,55,153.67v1.52a6.21,6.21,0,0,0,5,6.13v53.42c1.93,1.11,3.91,2.15,5.93,3.08V161c5-.56,10.08-1,15.12-1.33l5.27-.28a160.11,160.11,0,0,1,24.94-.27c11.59.86,21,1.63,22.85,1.77l.34,0c.23,0,.46.05.7.07v56.87c2-.93,4-2,5.93-3.08V161.32a6.22,6.22,0,0,0,5-6.13v-1.52a6.25,6.25,0,0,0,4.06-5.94v-1.95a6.83,6.83,0,0,0,1.27-1,6.47,6.47,0,0,0,1.87-4.58v-5.07A7.58,7.58,0,0,0,149,128.45Zm-31.91.71a12,12,0,0,1-1.32,8.1c-1.39-.08-2.82-.15-4.25-.17s-2.9-.08-4.36-.14-2.9,0-4.36,0c-2.93,0-5.82.11-8.7.2s-5.7.34-8.42.51-5.34.52-7.82.81l-3.63.41c-1.16.2-2.27.37-3.36.55-2.14.34-4.14.63-5.88,1l-4.48.94c-1.63.36-2.81.59-3.41.72l3.44-.57c1.24-.2,2.77-.48,4.51-.77s3.75-.47,5.89-.73c1.09-.11,2.22-.25,3.38-.41s2.38-.16,3.63-.27c2.48-.18,5.11-.45,7.8-.48s5.54-.25,8.38-.2,5.74,0,8.65.14l4.33.18c1.43.09,2.85.18,4.28.29,2.84.14,5.63.48,8.33.73s5.29.64,7.75,1c1.2.2,2.33.38,3.45.52-7.81-.62-15.9-1.14-15.9-1.14a14,14,0,0,1-.68,5.66c-1.21-.05-2.45-.14-3.7-.16-2.62-.09-5.3-.18-8-.14s-5.36.09-8,.16-5.22.29-7.72.43-4.91.41-7.18.69-4.45.54-6.43.83-3.79.6-5.38.87-3,.57-4.15.79c-2,.41-3.25.66-3.53.71.28,0,1.55-.23,3.55-.55,1.16-.18,2.56-.43,4.17-.63l5.41-.62c2-.22,4.14-.38,6.43-.57s4.68-.24,7.18-.36,5.06-.14,7.67-.11,5.29,0,7.93.18,5.29.29,7.92.47c1.28.08,2.59.23,3.86.33s2.53.26,3.77.42,2.43.28,3.62.44l3.47.48c2,.31,4,.65,5.81,1-8.28-.73-18.28-1.36-18.28-1.36a12.8,12.8,0,0,1-1,6.31c-3.74-.13-7.49-.22-11.24-.22a316.21,316.21,0,0,0-38.88,2.43,2.6,2.6,0,0,1-.37,0,2.56,2.56,0,0,1-2.61-2.63v-4.91l-.95.13h-.45a2.61,2.61,0,0,1-2.68-2.69V143a2.72,2.72,0,0,1-.39,0,2.68,2.68,0,0,1-2.73-2.79v-5.07a3.91,3.91,0,0,1,3.19-3.73,313.58,313.58,0,0,1,84.1-1C129.36,129.61,117.06,129.16,117.06,129.16Zm-16.54-4.75a317.59,317.59,0,0,0-45,3.2C58,107.79,77,89.46,100.41,89.46h.23A46.38,46.38,0,0,1,139.38,111a46.71,46.71,0,0,0-30.21-17.82c-1-.14-1.15.88-.29,1.34,9,5,12.49,6.74-5.93,10-7.42,1.34-6.65,6.31-4.91,10,.94.07,1.91.13,2.87.23,2.24.22,4.47.36,6.67.61s4.36.47,6.41.72,4.11.55,6,.8,3.72.54,5.36.79c3.33.46,6.06,1,8,1.32s3,.52,3,.52l-3.06-.29c-1.94-.18-4.71-.48-8.05-.7l-5.38-.39c-1.91-.09-3.91-.21-6-.3s-4.26-.16-6.45-.24-4.4-.09-6.63-.12c-1.16,0-2.33,0-3.49,0-.73,0-1.46.09-2.19.11-2.67.09-5.28.3-7.81.51s-5,.45-7.29.72c-1.16.12-2.29.25-3.36.39s-2.16.31-3.16.45c-2,.32-3.85.59-5.47.86s-3,.59-4.18.82c-1.52.3-2.61.52-3.18.62.57-.07,1.66-.25,3.2-.48,1.18-.18,2.59-.37,4.21-.64s3.49-.38,5.51-.61c1-.11,2-.23,3.14-.34s2.2-.14,3.36-.25c2.3-.14,4.73-.34,7.27-.39s5.15-.2,7.79-.18l4,0c1.36,0,2.7,0,4,.09,2.7,0,5.4.2,8,.34s5.25.36,7.77.54,4.93.46,7.22.73,4.47.52,6.47.84c4,.53,7.29,1.11,9.61,1.53,1,.2,1.88.36,2.47.49a31.45,31.45,0,0,1,.73,4A317.59,317.59,0,0,0,100.52,124.41Z"/><path class="cls-3" d="M57.07,142.08l-.43.07A3.83,3.83,0,0,0,57.07,142.08Z"/><path class="cls-4" d="M78.29,192a281.9,281.9,0,0,1,24.19-25.55c1.4-1.3,2.74-2.6,4.08-3.89-9.65-.27-19.3.21-28.93.82l-.64.72a1.07,1.07,0,0,0-.14.16,4.32,4.32,0,0,0-.34.39c-.38.41-.7.8-.7.8q-3.33,3.84-6.25,7.65v30.57c1.57-2.38,3.32-4.79,5.2-7.24.08-.08.17-.21.26-.32,1.09-1.3,2.7-3.36,3.15-3.95A.83.83,0,0,0,78.29,192Z"/><path class="cls-4" d="M118.81,177.15c-.17.22-.42.52-.73.9-1.46,1.76-4.18,5-5.52,6.59-.09.11-.18.19-.25.28l-.28.33a1.8,1.8,0,0,0-.18.25h0s0,0,0,0v0A328.37,328.37,0,0,1,88.32,210.1c-.11.11-.24.21-.34.32q-4.49,4.26-8.44,8.59h0l-.74.83L76.86,222a81.25,81.25,0,0,0,23.66,3.5h.57l1.39-1.34c3.6-3.4,7-6.77,10.3-10.15l.71-.72c1.09-1.1,2.63-2.75,3.32-3.48l0,0,.32-.33c4.13-4.4,10-11.08,14.29-16.09V164l-2.66-.21C126,167.61,122.14,173,118.81,177.15Z"/><path class="cls-4" d="M131.46,219.44v-4.61c-1.5,2.06-3.07,4.18-4.73,6.38C128.34,220.68,129.91,220.09,131.46,219.44Z"/><path class="cls-4" d="M100.52,35.74a107.63,107.63,0,0,1,46.89,10.71c1.93.93,3.82,1.94,5.68,3l35-14.78a3,3,0,0,0-.19-5.6L104.45.17a3,3,0,0,0-2.15.07L13,38a3,3,0,0,0,.19,5.61l28.29,9.79C43.22,52.22,45,51.1,46.87,50A107.21,107.21,0,0,1,100.52,35.74Z"/><path class="cls-4" d="M144.15,53.21A100.55,100.55,0,0,0,0,143.76a101.12,101.12,0,0,0,56.91,90.58c2.3,1.11,4.41,2,6.25,2.74,1.23.52,2.54,1,4,1.52s3,1,4.45,1.46l.36.11.59.16c1.64.48,3.2.89,4.72,1.23.76.2,1.53.36,2.18.5l2.34.47c.71.16,1.44.26,2.18.39,1.91.32,3.66.55,5.27.73a102.65,102.65,0,0,0,11.29.63,100.49,100.49,0,0,0,18.6-1.72l.73-.14c.68-.13,1.36-.27,2-.43l.44-.09c1.25-.27,2.49-.57,3.63-.87,2.47-.63,5-1.38,7.38-2.24.32-.09.64-.21.95-.32,1.07-.37,2.21-.82,3.43-1.32,2-.77,4.09-1.7,6.45-2.81a100.54,100.54,0,0,0,0-181.13ZM138,221.44c-2,1-3.79,1.74-5.6,2.45-1,.39-2,.79-3,1.13l-.57.21c-2.11.73-4.25,1.4-6.51,2-1,.26-2,.52-3.09.75l-.53.1-1.11.25-.55.11a87.6,87.6,0,0,1-26.25,1c-1.39-.16-2.88-.36-4.54-.65-.52-.07-1.05-.16-1.57-.26l-.31-.07c-.6-.11-1.19-.22-1.92-.38s-1.18-.25-1.77-.39l-.2-.06c-1.27-.28-2.59-.62-4-1l-.31-.07-.5-.16c-1.26-.4-2.52-.79-3.78-1.24s-2.17-.78-3.4-1.28c-1.66-.66-3.45-1.43-5.41-2.38A86.24,86.24,0,0,1,69.79,63.2a86.22,86.22,0,0,1,117,80.56A86.75,86.75,0,0,1,138,221.44Z"/></g></g></svg>