<svg width="737" height="245" viewBox="0 0 737 245" fill="none" xmlns="http://www.w3.org/2000/svg">
<g clip-path="url(#clip0_63_11)">
<path d="M260 79.8898H244.13V70.5898H286V79.8898H270.18V124.89H260V79.8898Z" fill="#161616"/>
<path d="M289.4 70.5898H299.17V91.1298H300.56C301.8 88.6498 304.83 85.7798 311.65 85.7798C320.65 85.7798 326.65 92.3698 326.65 101.9V124.85H316.88V102.68C316.88 96.8598 313.94 93.9998 308.67 93.9998C302.67 93.9998 299.21 98.1798 299.21 105.32V124.85H289.4V70.5898Z" fill="#161616"/>
<path d="M331.42 106.09V105.16C331.42 93.0701 339.17 85.3101 350.64 85.3101C362.11 85.3101 369.32 93.3801 369.32 105.16V108.49H341.32C341.55 113.77 345.66 117.41 351.09 117.41C356.52 117.41 358.76 114.62 360.09 111.67L368.09 115.86C365.92 119.97 361.35 125.93 350.81 125.93C339.24 125.93 331.42 118.18 331.42 106.09ZM359.42 101.21C358.95 96.7901 355.62 93.8401 350.58 93.8401C345.31 93.8401 342.13 96.8401 341.44 101.21H359.42Z" fill="#161616"/>
<path d="M399.24 70.5898H417.07L431.34 124.85H420.79L417.85 112.91H398.47L395.47 124.85H385L399.24 70.5898ZM415.44 103.45L408.85 76.9998H407.46L400.87 103.43L415.44 103.45Z" fill="#161616"/>
<path d="M434.28 86.4001H443.89V91.0501H445.29C447.07 88.1101 450.4 85.3101 457.38 85.3101C466.6 85.3101 474.74 92.4501 474.74 105V106.24C474.74 118.8 466.68 125.93 457.38 125.93C450.38 125.93 447.07 123.14 445.44 120.43H444.05V140.35H434.28V86.4001ZM465 106V105.23C465 97.7901 460.42 93.8301 454.45 93.8301C448.48 93.8301 443.91 97.8301 443.91 105.23V106C443.91 113.44 448.41 117.4 454.45 117.4C460.49 117.4 465 113.45 465 106Z" fill="#161616"/>
<path d="M478 106.24V105C478 92.6001 486.68 85.3101 498.15 85.3101C509.62 85.3101 518.31 92.6001 518.31 105V106.24C518.31 118.65 509.62 125.93 498.15 125.93C486.68 125.93 478 118.65 478 106.24ZM508.54 106.01V105.24C508.54 98.0001 504.2 94.0001 498.15 94.0001C492.1 94.0001 487.76 98.0001 487.76 105.24V106C487.76 113.21 492.18 117.24 498.15 117.24C504.12 117.24 508.54 113.22 508.54 106V106.01Z" fill="#161616"/>
<path d="M521.25 113.38L530.25 111.05C531.25 116.48 534.9 118.18 539.4 118.18C543.9 118.18 546.07 116.4 546.07 114C546.07 111.6 544.13 110.51 539.56 109.66L537.39 109.27C529.32 107.8 522.66 104.77 522.66 97.1801C522.66 89.5901 528.66 85.3101 537.85 85.3101C546.45 85.3101 552.35 89.5001 554.13 95.7001L545.06 98.4901C544.21 94.5401 541.57 93.0701 537.85 93.0701C534.13 93.0701 532.11 94.4601 532.11 96.7101C532.11 99.1901 534.28 100.2 537.85 100.82L540.02 101.21C548.7 102.76 555.52 105.21 555.52 113.3C555.52 121.39 549.17 125.93 539.4 125.93C529.31 125.93 522.57 121.44 521.25 113.38Z" fill="#161616"/>
<path d="M565.59 116.17V94.46H556V86.4H565.61V74.46H575.38V86.4H585.9V94.46H575.36V114.46C575.36 116.01 576.13 116.79 577.53 116.79H585V124.85H574.12C569 124.85 565.59 121.44 565.59 116.17Z" fill="#161616"/>
<path d="M587.6 106.24V105C587.6 92.6001 596.29 85.3101 607.76 85.3101C619.23 85.3101 627.92 92.6001 627.92 105V106.24C627.92 118.65 619.23 125.93 607.76 125.93C596.29 125.93 587.6 118.65 587.6 106.24ZM618.15 106.01V105.24C618.15 98.0001 613.81 94.0001 607.76 94.0001C601.71 94.0001 597.37 98.0001 597.37 105.24V106C597.37 113.21 601.79 117.24 607.76 117.24C613.73 117.24 618.15 113.22 618.15 106V106.01Z" fill="#161616"/>
<path d="M633 70.5898H642.77V124.85H633V70.5898Z" fill="#161616"/>
<path d="M647.91 106.24V105C647.91 92.6001 656.59 85.3101 668.07 85.3101C679.55 85.3101 688.22 92.6001 688.22 105V106.24C688.22 118.65 679.54 125.93 668.07 125.93C656.6 125.93 647.91 118.65 647.91 106.24ZM678.46 106.01V105.24C678.46 98.0001 674.11 94.0001 668.07 94.0001C662.03 94.0001 657.68 98.0001 657.68 105.24V106C657.68 113.21 662.1 117.24 668.07 117.24C674.04 117.24 678.46 113.22 678.46 106V106.01Z" fill="#161616"/>
<path d="M691.17 113.38L700.17 111.05C701.17 116.48 704.82 118.18 709.32 118.18C713.82 118.18 716 116.4 716 114C716 111.6 714.06 110.51 709.49 109.66L707.32 109.27C699.26 107.8 692.59 104.77 692.59 97.1801C692.59 89.5901 698.64 85.3101 707.79 85.3101C716.39 85.3101 722.28 89.5001 724.07 95.7001L715 98.4901C714.14 94.5401 711.51 93.0701 707.79 93.0701C704.07 93.0701 702 94.4601 702 96.7101C702 99.1901 704.17 100.2 707.74 100.82L709.91 101.21C718.59 102.76 725.41 105.21 725.41 113.3C725.41 121.39 719.05 125.93 709.29 125.93C699.23 125.93 692.48 121.44 691.17 113.38Z" fill="#161616"/>
<path d="M245.91 202.57H253.28V163.19H245.91V155.75H273.43C283.12 155.75 289.71 161.1 289.71 169.39V170.17C289.71 177.69 284.71 180.87 281.19 181.87V183.11C283.806 183.77 286.112 185.314 287.718 187.482C289.324 189.649 290.13 192.306 290 195V195.78C290 204.78 283.17 210.04 273.64 210.04H245.91V202.57ZM272.58 178.85C277.85 178.85 281.34 176.06 281.34 171.48V170.71C281.34 166.21 277.93 163.35 272.58 163.35H261.65V178.85H272.58ZM272.58 202.42C278.16 202.42 281.58 199.55 281.58 194.82V194.12C281.58 189.31 278.25 186.52 272.58 186.52H261.65V202.42H272.58Z" fill="#161616"/>
<path d="M293.2 199C293.2 191.24 299.4 187.21 307.77 187.21H319.4V184.73C319.4 180.31 316.77 177.37 311.18 177.37C305.59 177.37 302.97 180.24 302.04 184.37L294.59 181.97C296.46 175.97 301.49 170.73 311.26 170.73C321.18 170.73 327.26 176 327.26 185.3V201C327.26 202.55 328.04 203.33 329.43 203.33H332.69V210H326.69C323.12 210 320.64 208 320.64 204.81V204.58H319.4C318.24 207.06 315.45 211.09 307.54 211.09C299.4 211.1 293.2 206.76 293.2 199ZM319.4 194.19V193.41H308.24C303.97 193.41 301.18 195.27 301.18 198.76C301.18 202.25 303.97 204.5 308.7 204.5C315.06 204.51 319.4 200.63 319.4 194.2V194.19Z" fill="#161616"/>
<path d="M336.53 171.8H344.36V176.29H345.6C346.84 173.11 349.55 171.64 353.66 171.64H358.24V178.85H353.35C348.16 178.85 344.51 181.64 344.51 187.53V210H336.51L336.53 171.8Z" fill="#161616"/>
<path d="M371.72 204.59H370.48V210H362.65V155.75H370.65V177H371.89C373.67 173.9 377.31 170.72 384.76 170.72C394.37 170.72 402.43 178.01 402.43 190.33V191.5C402.43 203.9 394.29 211.11 384.76 211.11C377.3 211.1 373.66 207.92 371.72 204.59ZM394.36 191.25V190.55C394.36 182.34 389.36 177.76 382.42 177.76C375.48 177.76 370.56 182.34 370.56 190.55V191.25C370.56 199.47 375.56 204.12 382.42 204.12C389.28 204.12 394.36 199.47 394.36 191.25Z" fill="#161616"/>
<path d="M406.6 191.41V190.48C406.6 178.54 414.43 170.71 425.67 170.71C436.67 170.71 444.12 178.46 444.12 190.09V193.09H414.74C414.98 199.84 419.74 204.09 426.14 204.09C432.19 204.09 434.82 200.99 436.45 197.43L443.12 200.84C440.79 205.25 436.29 211.07 425.98 211.07C414.36 211.1 406.6 203.27 406.6 191.41ZM436.06 187C435.6 181.26 431.57 177.77 425.6 177.77C419.63 177.77 415.6 181.26 414.82 187H436.06Z" fill="#161616"/>
<path d="M449.86 171.8H457.69V176.29H458.93C460.17 173.11 462.88 171.64 466.99 171.64H471.56V178.85H466.68C461.49 178.85 457.84 181.64 457.84 187.53V210H449.84L449.86 171.8Z" fill="#161616"/>
<path d="M490.24 189.24V176.52C490.24 162.34 498.54 154.66 511.79 154.66C524.79 154.66 532.18 162.34 532.18 174.9V175.28H523.89V174.66C523.89 167.38 520.01 162.18 511.79 162.18C503.57 162.18 498.62 167.53 498.62 176.37V189.37C498.62 198.21 503.5 203.56 511.79 203.56C520.08 203.56 523.89 198.36 523.89 191.08V189.76H532.18V190.85C532.18 203.4 524.82 211.08 511.79 211.08C498.54 211.1 490.24 203.42 490.24 189.24Z" fill="#161616"/>
<path d="M536 191.78V190.61C536 178.52 544.29 171 555.76 171C567.23 171 575.61 178.52 575.61 190.61V191.78C575.61 203.95 567.24 211.39 555.76 211.39C544.28 211.39 536 203.95 536 191.78ZM567.63 191.54V190.84C567.63 182.94 562.82 178.13 555.76 178.13C548.7 178.13 544 182.94 544 190.84V191.54C544 199.54 548.81 204.26 555.78 204.26C562.75 204.26 567.61 199.53 567.61 191.54H567.63Z" fill="#161616"/>
<path d="M581.63 155.75H589.63V210H581.63V155.75Z" fill="#161616"/>
<path d="M597.6 155.75H605.6V210H597.6V155.75Z" fill="#161616"/>
<path d="M611.71 191.41V190.48C611.71 178.54 619.54 170.71 630.78 170.71C641.78 170.71 649.23 178.46 649.23 190.09V193.09H619.85C620.08 199.84 624.85 204.09 631.25 204.09C637.25 204.09 639.93 200.99 641.56 197.43L648.22 200.84C645.9 205.25 641.4 211.07 631.09 211.07C619.46 211.1 611.71 203.27 611.71 191.41ZM641.17 187C640.7 181.26 636.67 177.77 630.7 177.77C624.73 177.77 620.7 181.26 619.93 187H641.17Z" fill="#161616"/>
<path d="M653.1 189.93C653.1 177.93 661.17 170.71 670.86 170.71C678.3 170.71 681.94 174.12 683.8 177.3H685V171.8H692.75V217.8C692.75 222.53 689.81 225.48 685.08 225.48H659.38V218.48H682.64C682.953 218.524 683.272 218.494 683.571 218.391C683.87 218.288 684.14 218.116 684.359 217.889C684.579 217.662 684.742 217.386 684.834 217.083C684.926 216.781 684.945 216.461 684.89 216.15V204H683.65C681.94 207 678.38 210.21 670.86 210.21C661.17 210.21 653.1 203 653.1 191.06V189.93ZM684.96 190.87V190.17C684.96 182.34 679.96 177.76 673.03 177.76C666.1 177.76 661.17 182.34 661.17 190.17V190.87C661.17 198.7 666.17 203.27 673.03 203.27C679.89 203.27 685 198.7 685 190.87H684.96Z" fill="#161616"/>
<path d="M698.84 191.41V190.48C698.84 178.54 706.67 170.71 717.91 170.71C728.91 170.71 736.36 178.46 736.36 190.09V193.09H707C707.23 199.84 712 204.09 718.39 204.09C724.39 204.09 727.08 200.99 728.7 197.43L735.37 200.84C733.05 205.25 728.55 211.07 718.24 211.07C706.59 211.1 698.84 203.27 698.84 191.41ZM728.3 187C727.83 181.26 723.8 177.77 717.83 177.77C711.86 177.77 707.83 181.26 707.06 187H728.3Z" fill="#161616"/>
<path d="M149 128.45C148.07 118.26 143.09 108.15 135 100.25C125.849 91.2046 113.507 86.122 100.64 86.0996H100.41C87.5584 86.14 75.2356 91.2207 66.09 100.25C57.98 108.15 52.99 118.25 52.09 128.45C50.8338 129.064 49.771 130.012 49.0178 131.191C48.2647 132.369 47.8503 133.732 47.82 135.13V140.2C47.8072 141.319 48.0921 142.422 48.6456 143.396C49.1991 144.369 50.0012 145.178 50.97 145.74V147.74C50.9634 148.577 51.1227 149.408 51.4384 150.183C51.7542 150.959 52.2204 151.665 52.81 152.26C53.4279 152.884 54.1756 153.366 55 153.67V155.19C54.9909 156.633 55.4851 158.035 56.3977 159.154C57.3102 160.272 58.584 161.038 60 161.32V214.74C61.93 215.85 63.91 216.89 65.93 217.82V161C70.93 160.44 76.01 160 81.05 159.67L86.32 159.39C94.6137 158.651 102.952 158.561 111.26 159.12C122.85 159.98 132.26 160.75 134.11 160.89H134.45C134.68 160.89 134.91 160.94 135.15 160.96V217.83C137.15 216.9 139.15 215.83 141.08 214.75V161.32C142.495 161.037 143.768 160.27 144.68 159.152C145.592 158.034 146.087 156.633 146.08 155.19V153.67C147.286 153.218 148.324 152.406 149.05 151.342C149.777 150.279 150.158 149.017 150.14 147.73V145.78C150.601 145.498 151.028 145.162 151.41 144.78C152.615 143.561 153.288 141.914 153.28 140.2V135.13C153.253 133.729 152.839 132.364 152.084 131.185C151.328 130.006 150.261 129.059 149 128.45ZM117.09 129.16C117.616 131.931 117.148 134.799 115.77 137.26C114.38 137.18 112.95 137.11 111.52 137.09C110.09 137.07 108.62 137.01 107.16 136.95C105.7 136.89 104.26 136.95 102.8 136.95C99.87 136.95 96.98 137.06 94.1 137.15C91.22 137.24 88.4 137.49 85.68 137.66C82.96 137.83 80.34 138.18 77.86 138.47L74.23 138.88C73.07 139.08 71.96 139.25 70.87 139.43C68.73 139.77 66.73 140.06 64.99 140.43L60.51 141.37C58.88 141.73 57.7 141.96 57.1 142.09L60.54 141.52C61.78 141.32 63.31 141.04 65.05 140.75C66.79 140.46 68.8 140.28 70.94 140.02C72.03 139.91 73.16 139.77 74.32 139.61C75.48 139.45 76.7 139.45 77.95 139.34C80.43 139.16 83.06 138.89 85.75 138.86C88.44 138.83 91.29 138.61 94.13 138.66C96.97 138.71 99.87 138.66 102.78 138.8L107.11 138.98C108.54 139.07 109.96 139.16 111.39 139.27C114.23 139.41 117.02 139.75 119.72 140C122.42 140.25 125.01 140.64 127.47 141C128.67 141.2 129.8 141.38 130.92 141.52C123.11 140.9 115.02 140.38 115.02 140.38C115.184 142.293 114.952 144.22 114.34 146.04C113.13 145.99 111.89 145.9 110.64 145.88C108.02 145.79 105.34 145.7 102.64 145.74C99.94 145.78 97.28 145.83 94.64 145.9C92 145.97 89.42 146.19 86.92 146.33C84.42 146.47 82.01 146.74 79.74 147.02C77.47 147.3 75.29 147.56 73.31 147.85C71.33 148.14 69.52 148.45 67.93 148.72C66.34 148.99 64.93 149.29 63.78 149.51C61.78 149.92 60.53 150.17 60.25 150.22C60.53 150.22 61.8 149.99 63.8 149.67C64.96 149.49 66.36 149.24 67.97 149.04L73.38 148.42C75.38 148.2 77.52 148.04 79.81 147.85C82.1 147.66 84.49 147.61 86.99 147.49C89.49 147.37 92.05 147.35 94.66 147.38C97.27 147.41 99.95 147.38 102.59 147.56C105.23 147.74 107.88 147.85 110.51 148.03C111.79 148.11 113.1 148.26 114.37 148.36C115.64 148.46 116.9 148.62 118.14 148.78C119.38 148.94 120.57 149.06 121.76 149.22L125.23 149.7C127.23 150.01 129.23 150.35 131.04 150.7C122.76 149.97 112.76 149.34 112.76 149.34C112.965 151.494 112.621 153.665 111.76 155.65C108.02 155.52 104.27 155.43 100.52 155.43C87.5224 155.44 74.5377 156.251 61.64 157.86C61.5168 157.868 61.3932 157.868 61.27 157.86C60.9237 157.867 60.5795 157.803 60.2584 157.673C59.9373 157.543 59.6459 157.349 59.4019 157.103C59.1579 156.858 58.9663 156.565 58.8388 156.243C58.7113 155.92 58.6505 155.576 58.66 155.23V150.32L57.71 150.45H57.26C56.9046 150.459 56.5509 150.396 56.2207 150.264C55.8905 150.133 55.5907 149.935 55.3398 149.683C55.0888 149.431 54.892 149.13 54.7613 148.8C54.6307 148.469 54.569 148.115 54.58 147.76V143C54.4502 143.009 54.3198 143.009 54.19 143C53.8244 143.007 53.4612 142.939 53.1228 142.801C52.7844 142.662 52.4779 142.456 52.2222 142.194C51.9665 141.933 51.7669 141.622 51.6358 141.281C51.5048 140.939 51.4449 140.575 51.46 140.21V135.14C51.4859 134.247 51.8165 133.39 52.3968 132.712C52.9772 132.033 53.7723 131.574 54.65 131.41C82.5112 127.301 110.799 126.965 138.75 130.41C129.36 129.61 117.06 129.16 117.06 129.16H117.09ZM100.55 124.41C85.4931 124.408 70.4552 125.478 55.55 127.61C58 107.79 77 89.4596 100.41 89.4596H100.64C108.382 89.5312 115.983 91.5397 122.75 95.3021C129.516 99.0645 135.234 104.461 139.38 111C132.007 101.361 121.172 94.9698 109.17 93.1796C108.17 93.0396 108.02 94.0596 108.88 94.5196C117.88 99.5196 121.37 101.26 102.95 104.52C95.53 105.86 96.3 110.83 98.04 114.52C98.98 114.59 99.95 114.65 100.91 114.75C103.15 114.97 105.38 115.11 107.58 115.36C109.78 115.61 111.94 115.83 113.99 116.08C116.04 116.33 118.1 116.63 119.99 116.88C121.88 117.13 123.71 117.42 125.35 117.67C128.68 118.13 131.41 118.67 133.35 118.99C135.29 119.31 136.35 119.51 136.35 119.51L133.29 119.22C131.35 119.04 128.58 118.74 125.24 118.52L119.86 118.13C117.95 118.04 115.95 117.92 113.86 117.83C111.77 117.74 109.6 117.67 107.41 117.59C105.22 117.51 103.01 117.5 100.78 117.47C99.62 117.47 98.45 117.47 97.29 117.47C96.56 117.47 95.83 117.56 95.1 117.58C92.43 117.67 89.82 117.88 87.29 118.09C84.76 118.3 82.29 118.54 80 118.81C78.84 118.93 77.71 119.06 76.64 119.2C75.57 119.34 74.48 119.51 73.48 119.65C71.48 119.97 69.63 120.24 68.01 120.51C66.39 120.78 65.01 121.1 63.83 121.33C62.31 121.63 61.22 121.85 60.65 121.95C61.22 121.88 62.31 121.7 63.85 121.47C65.03 121.29 66.44 121.1 68.06 120.83C69.68 120.56 71.55 120.45 73.57 120.22C74.57 120.11 75.57 119.99 76.71 119.88C77.85 119.77 78.91 119.74 80.07 119.63C82.37 119.49 84.8 119.29 87.34 119.24C89.88 119.19 92.49 119.04 95.13 119.06H99.13C100.49 119.06 101.83 119.06 103.13 119.15C105.83 119.15 108.53 119.35 111.13 119.49C113.73 119.63 116.38 119.85 118.9 120.03C121.42 120.21 123.83 120.49 126.12 120.76C128.41 121.03 130.59 121.28 132.59 121.6C136.59 122.13 139.88 122.71 142.2 123.13C143.2 123.33 144.08 123.49 144.67 123.62C144.999 124.936 145.243 126.272 145.4 127.62C130.535 125.49 115.537 124.417 100.52 124.41H100.55Z" fill="#6B3420"/>
<path d="M57.0699 142.08L56.6399 142.15C56.7844 142.135 56.928 142.112 57.0699 142.08Z" fill="#3F3F3F"/>
<path d="M78.2901 192C85.8135 182.988 93.8926 174.455 102.48 166.45C103.88 165.15 105.22 163.85 106.56 162.56C96.9101 162.29 87.2601 162.77 77.6301 163.38L76.9901 164.1C76.9382 164.148 76.8913 164.202 76.8501 164.26C76.729 164.383 76.6155 164.513 76.5101 164.65C76.1301 165.06 75.8101 165.45 75.8101 165.45C73.5901 168.01 71.5067 170.56 69.5601 173.1V203.67C71.1301 201.29 72.8801 198.88 74.7601 196.43C74.8401 196.35 74.9301 196.22 75.0201 196.11C76.1101 194.81 77.7201 192.75 78.1701 192.16C78.2164 192.112 78.2567 192.058 78.2901 192Z" fill="#6B3420"/>
<path d="M117.95 175.36C117.78 175.58 117.53 175.88 117.22 176.26C115.76 178.02 113.04 181.26 111.7 182.85C111.61 182.96 111.52 183.04 111.45 183.13L111.17 183.46C111.103 183.538 111.043 183.622 110.99 183.71C103.577 192.311 95.7234 200.522 87.46 208.31C87.35 208.42 87.22 208.52 87.12 208.63C84.1267 211.47 81.3133 214.333 78.68 217.22L77.94 218.05L76 220.21C83.6708 222.537 91.6439 223.717 99.66 223.71H100.23L101.62 222.37C105.22 218.97 108.62 215.6 111.92 212.22L112.63 211.5C113.72 210.4 115.26 208.75 115.95 208.02L116.27 207.69C120.4 203.29 126.27 196.61 130.56 191.6V162.21L127.9 162C125.14 165.82 121.28 171.21 117.95 175.36Z" fill="#6B3420"/>
<path d="M130.73 219.61V215C129.23 217.06 127.66 219.18 126 221.38C127.61 220.85 129.18 220.26 130.73 219.61Z" fill="#6B3420"/>
<path d="M100.52 35.7398C116.758 35.7271 132.788 39.3885 147.41 46.4498C149.34 47.3798 151.23 48.3898 153.09 49.4498L188.09 34.6698C188.649 34.4336 189.124 34.0332 189.451 33.5216C189.778 33.01 189.942 32.4113 189.921 31.8045C189.9 31.1977 189.696 30.6114 189.335 30.1232C188.975 29.6349 188.474 29.2676 187.9 29.0698L104.45 0.169827C103.749 -0.0734174 102.983 -0.0484796 102.3 0.239827L13 37.9998C12.4373 38.2343 11.9595 38.6346 11.63 39.1475C11.3006 39.6603 11.1351 40.2613 11.1558 40.8705C11.1764 41.4797 11.3821 42.0682 11.7455 42.5575C12.1089 43.0469 12.6128 43.4139 13.19 43.6098L41.48 53.3998C43.22 52.2198 45 51.0998 46.87 49.9998C63.1912 40.6187 81.6948 35.7005 100.52 35.7398Z" fill="#6B3420"/>
<path d="M144.15 52.9446C128.826 45.5707 111.882 42.2037 94.9035 43.1587C77.9246 44.1137 61.4653 49.3593 47.0649 58.4051C32.6646 67.4509 20.7938 80.0012 12.5628 94.8823C4.33171 109.763 0.00937213 126.489 0 143.495C0.0680437 162.404 5.43671 180.915 15.4964 196.926C25.5561 212.938 39.9037 225.808 56.91 234.075C59.21 235.185 61.32 236.075 63.16 236.815C64.39 237.335 65.7 237.815 67.16 238.335C68.62 238.855 70.16 239.335 71.61 239.795L71.97 239.905L72.56 240.065C74.2 240.545 75.76 240.955 77.28 241.295C78.04 241.495 78.81 241.655 79.46 241.795L81.8 242.265C82.51 242.425 83.24 242.525 83.98 242.655C85.89 242.975 87.64 243.205 89.25 243.385C92.9989 243.802 96.768 244.012 100.54 244.015C106.78 244.02 113.007 243.444 119.14 242.295L119.87 242.155C120.55 242.025 121.23 241.885 121.87 241.725L122.31 241.635C123.56 241.365 124.8 241.065 125.94 240.765C128.41 240.135 130.94 239.385 133.32 238.525C133.64 238.435 133.96 238.315 134.27 238.205C135.34 237.835 136.48 237.385 137.7 236.885C139.7 236.115 141.79 235.185 144.15 234.075C161.191 225.859 175.568 213.003 185.63 196.982C195.692 180.962 201.029 162.428 201.029 143.51C201.029 124.592 195.692 106.057 185.63 90.0371C175.568 74.0166 161.191 61.16 144.15 52.9446ZM138 221.175C136 222.175 134.21 222.915 132.4 223.625C131.4 224.015 130.4 224.415 129.4 224.755L128.83 224.965C126.72 225.695 124.58 226.365 122.32 226.965C121.32 227.225 120.32 227.485 119.23 227.715L118.7 227.815L117.59 228.065L117.04 228.175C108.39 229.825 99.5405 230.163 90.79 229.175C89.4 229.015 87.91 228.815 86.25 228.525C85.73 228.455 85.2 228.365 84.68 228.265L84.37 228.195C83.77 228.085 83.18 227.975 82.45 227.815C81.72 227.655 81.27 227.565 80.68 227.425L80.48 227.365C79.21 227.085 77.89 226.745 76.48 226.365L76.17 226.295L75.67 226.135C74.41 225.735 73.15 225.345 71.89 224.895C70.63 224.445 69.72 224.115 68.49 223.615C66.83 222.955 65.04 222.185 63.08 221.235C47.8903 213.923 35.1765 202.32 26.5105 187.861C17.8446 173.401 13.6066 156.718 14.3205 139.876C15.0344 123.033 20.669 106.769 30.5275 93.0943C40.386 79.4197 54.0361 68.9343 69.79 62.9346C82.848 57.9441 96.9236 56.2035 110.804 57.8628C124.684 59.522 137.953 64.5314 149.467 72.4591C160.98 80.3869 170.394 90.9953 176.896 103.37C183.398 115.745 186.793 129.515 186.79 143.495C186.729 159.708 182.126 175.581 173.502 189.311C164.878 203.041 152.579 214.08 138 221.175Z" fill="#6B3420"/>
</g>
<defs>
<clipPath id="clip0_63_11">
<rect width="736.36" height="244.28" fill="white"/>
</clipPath>
</defs>
</svg>
