<svg width="119" height="144" viewBox="0 0 119 144" fill="none" xmlns="http://www.w3.org/2000/svg">
<g clip-path="url(#clip0_62_2)">
<path fill-rule="evenodd" clip-rule="evenodd" d="M58.1745 33.5161C69.9204 33.5161 79.1539 36.5178 87.8328 42.5539C88.4527 42.978 89.0073 43.3695 89.6273 43.859C90.2146 44.3157 90.7692 44.7399 91.3239 45.2293C93.9341 47.5132 95.2065 48.6552 97.4905 51.3632C99.8722 54.1692 100.688 55.409 102.613 58.5739C106.365 64.8057 109.465 74.1045 109.465 82.6528V85.2957C109.465 92.4737 107.116 100.598 104.668 105.427C103.951 106.862 103.331 108.135 102.548 109.473L98.7629 115.084L95.1739 119.261L91.1281 122.98C85.9078 127.026 81.6009 129.767 75.1407 131.887C56.0211 138.217 36.3795 132.801 23.459 119.848C21.3056 117.695 19.609 115.606 17.7819 113.094C15.9874 110.614 14.5518 107.906 13.1814 105.1C12.8552 104.448 12.5615 103.697 12.2679 102.947C11.3217 100.565 10.5386 98.314 9.91871 95.7364C9.26616 92.9957 8.87463 90.4834 8.64624 87.6448C8.61361 87.1228 8.67887 86.5681 8.64624 86.0461C8.61361 85.3935 8.51573 85.3283 8.4831 84.5779L8.80938 78.7376C8.97252 77.0083 9.29879 74.9528 9.69032 73.3214C10.6039 69.4062 11.2564 67.3506 12.7899 63.7943C15.3675 57.7256 17.6188 55.1154 21.3709 50.3844C22.5455 48.9162 26.1997 45.6535 27.8964 44.2831L31.5833 41.6403C34.3892 39.7479 38.9244 37.5293 42.1545 36.3873C43.8185 35.8 45.2541 35.4085 47.016 34.9517C50.1482 34.1686 54.2266 33.5161 58.1745 33.5161ZM60.1322 143.013H57.0978C53.2478 142.916 49.3978 142.426 45.6456 141.447L39.8053 139.783C37.0646 138.87 34.5523 137.728 32.0074 136.455C29.0057 134.954 24.4705 132.018 21.9908 129.897L17.2272 125.59C16.8683 125.232 16.6073 125.003 16.281 124.644L13.7035 121.675C12.6268 120.272 11.5174 118.967 10.5386 117.499C4.01316 107.645 0 97.0741 0 83.9253C0 66.0782 8.09158 51.559 17.0315 42.6191C18.3039 41.3467 19.4133 40.2373 20.8162 39.0954L22.8065 37.4314C23.5243 36.8441 24.1768 36.4199 24.9273 35.8653C32.2358 30.4491 41.8609 26.8275 50.9313 25.5224C54.7487 24.9677 56.8042 25.0004 60.5237 25.0004C71.7801 25.0004 83.9175 29.3398 92.9226 35.7021C93.6404 36.1915 94.293 36.7136 95.0108 37.2682L99.7744 41.314C101.079 42.5212 102.907 44.6094 104.081 45.9471C105.484 47.5132 107.54 50.4823 108.682 52.2116C109.204 52.9946 109.53 53.5493 110.019 54.3976C110.476 55.2133 110.868 55.8006 111.292 56.6489L113.576 61.543C113.935 62.326 114.261 63.207 114.555 64.0879C118.502 75.7032 119.155 86.6008 116.153 98.575C114.294 106.014 111.227 112.115 106.92 118.38C105.191 120.892 104.146 121.806 102.809 123.502L98.3714 128.005C98.1104 128.233 98.0777 128.233 97.7841 128.462C92.9879 132.507 89.1705 135.313 82.9713 137.989C75.989 140.991 68.0932 142.85 60.1322 143.079V143.013Z" fill="#6B3420"/>
<path fill-rule="evenodd" clip-rule="evenodd" d="M6.59406 23.7526C6.59406 25.645 7.93178 25.7429 10.281 26.5259L17.2306 28.9404C18.0789 29.234 18.8619 29.4624 19.645 29.756C20.167 29.9518 24.1802 31.3548 24.4738 31.3548C24.5065 31.3548 25.1264 30.898 25.2569 30.8327C25.5832 30.637 25.8116 30.5065 26.0726 30.3433L31.2603 27.4721C34.1968 26.2649 35.4692 25.4819 38.9604 24.3073C51.3588 20.1962 64.1487 20.0657 76.6776 23.5568C79.7445 24.4052 83.7903 25.9713 86.6289 27.4069C90.4789 29.3319 89.1738 29.4624 92.5997 27.9289L103.823 23.1979C104.737 22.8064 110.382 20.5225 110.773 20.1962C111.915 19.2827 112.111 17.586 109.468 16.7377C108.326 16.3788 107.315 16.0526 106.205 15.5958C105.129 15.1716 104.052 14.9106 103.008 14.5191L80.3644 6.68851C78.1458 5.93809 75.9924 5.1224 73.839 4.4046C72.7297 4.0457 71.8161 3.6868 70.6741 3.29527C69.369 2.87112 61.3427 -0.0327148 60.7881 -0.0327148C59.9397 -0.0327148 57.9821 0.978732 57.2643 1.27238L9.33476 21.5339C8.78009 21.7623 8.09492 22.0234 7.57288 22.2844C7.08347 22.5128 6.52881 23.0348 6.52881 23.7526H6.59406Z" fill="#6B3420"/>
<path fill-rule="evenodd" clip-rule="evenodd" d="M73.7411 87.963H74.6221V88.0935H73.7411V87.963ZM74.6221 82.6774L74.6547 82.71C74.6547 82.71 74.5894 82.6774 74.6221 82.6774ZM72.5665 82.5469H73.578V82.6774H72.5665V82.5469ZM77.5585 76.0866L77.5912 76.1193C77.5912 76.1193 77.5259 76.0866 77.5585 76.0866ZM75.0788 75.9561H76.2534V76.0866H75.0788V75.9561ZM68.0313 80.4913C67.1178 80.4913 66.7915 80.3608 65.8453 80.3608C57.6885 80.3608 53.4143 80.2303 45.0617 81.2744C43.1041 81.5354 41.1138 81.7964 39.0583 82.188L33.74 83.2973C33.4138 83.4278 33.6095 83.3299 33.4464 83.4278C34.2294 83.4278 36.9049 82.8731 37.8511 82.71C39.3519 82.449 41.0485 82.2858 42.5494 82.1227C45.8121 81.7312 48.9117 81.568 52.5007 81.5354C53.7732 81.5354 56.0245 81.2091 57.5906 81.4375L67.6072 81.9922C69.2386 82.0574 70.8047 82.449 72.436 82.449L67.4441 82.3185C67.4441 84.8634 67.2809 84.2109 67.1504 85.6791C66.3021 85.6791 66.139 85.5486 65.258 85.5486C58.0148 85.5486 53.3164 85.3854 46.0079 86.3643L38.1447 87.5715C37.3943 87.7346 36.3176 88.0282 35.5019 88.0282L40.135 87.5388C42.7452 87.2126 47.2804 86.6905 49.8579 86.6905C50.9346 86.6905 51.4567 86.56 52.3376 86.5274C58.6347 86.4621 65.258 86.7884 71.3593 87.6041C72.0445 87.702 72.7297 87.8651 73.6106 87.8651V87.9956C71.0331 87.9956 68.6513 87.5715 66.139 87.5715C66.139 89.9859 66.2042 89.0397 65.7148 91.2257C63.5288 91.2257 61.8648 91.0952 59.7114 91.0952C57.297 91.0952 55.2414 91.2584 52.9575 91.2257C51.6198 91.2257 50.7715 91.3889 49.5969 91.3889C48.8465 91.3889 48.4549 91.4215 47.9329 91.4868C47.3456 91.552 46.791 91.4867 46.2363 91.552C43.2346 91.8783 39.7108 92.0414 36.7744 92.4982C34.0989 92.8897 34.6536 91.0626 34.6536 88.1588L33.5443 88.224C31.8476 88.0609 32.3044 86.4621 32.3044 83.9172C29.89 83.9172 30.412 82.0901 30.412 79.2189C30.412 78.3053 31.1951 77.4244 32.2065 77.196C33.218 76.9676 34.5883 76.8697 35.5672 76.7392L47.8677 75.532C48.5528 75.4667 49.1401 75.5646 49.8579 75.4667C51.0651 75.271 62.9089 75.1078 64.2792 75.271L74.7199 75.9888C73.7738 75.9888 69.3038 75.8909 68.847 75.6951C68.847 80.0019 68.7165 77.9464 68.1292 80.524L68.0313 80.4913ZM61.2775 68.9086C53.2838 68.9086 48.6507 69.2023 40.7549 70.5074L35.7629 71.5188L45.1596 70.3442C59.3198 69.2675 69.989 70.0506 83.7903 72.3019C84.6713 72.4324 85.2586 72.3019 85.3238 74.7489C84.5081 74.7489 82.9747 74.4553 82.1916 74.3574C77.7543 73.7701 73.5127 73.6396 69.3038 73.1502C68.7818 73.0849 68.0966 73.1502 67.5746 73.1502C66.7589 73.1502 66.6284 73.0197 65.9758 72.9871C64.8665 72.9218 63.5614 72.9871 62.4521 72.9871C61.1143 72.9871 60.3966 72.8239 59.0915 72.8239C57.7537 72.8239 57.0359 72.9871 55.7308 72.9871C54.5889 72.9871 53.349 72.9544 52.2071 72.9871C51.4567 73.0197 51.3914 73.1502 50.6084 73.1502C50.0537 73.1502 49.4338 73.1176 48.8791 73.1502C48.0308 73.2481 46.4973 73.3786 45.6164 73.4112C42.3536 73.5743 39.1562 73.9659 35.9587 74.3248C35.0777 74.4227 33.7727 74.7163 32.8591 74.7489C32.8591 70.7358 35.8282 65.5154 38.2426 62.5463C38.732 61.9264 39.1888 61.5349 39.6129 60.9802C40.135 60.2624 40.5265 60.1645 41.1138 59.5446C44.8986 55.6946 52.4681 52.6276 57.7864 52.6276H60.4292C64.7034 52.6276 69.4669 54.4547 72.2076 56.0861C78.1132 59.5772 79.8098 62.7094 80.495 63.1989C80.2992 63.4925 80.3971 63.3946 80.234 63.1662L79.6793 62.5789C77.5585 60.4582 75.9924 59.3162 73.3496 57.7827C71.3267 56.6408 66.7589 54.7158 63.6593 54.7158C63.6593 55.9556 64.1161 55.5314 66.0411 56.7386C68.3902 58.2069 69.6301 59.0878 65.6496 60.2298C61.2449 61.4696 56.9054 60.9476 56.9054 64.8302C56.9054 65.8417 57.297 66.6573 57.6232 67.3099C62.1911 67.3099 76.2534 69.6591 77.2649 69.6591L67.5746 69.0718C66.8568 69.0391 66.0737 69.1044 65.3885 69.0718L61.2775 68.9086ZM80.7886 63.7861C81.2128 64.2103 80.3645 63.362 80.7886 63.7861ZM30.6404 75.3689C29.89 75.5646 29.1722 76.3803 28.748 77.0002C27.5735 78.7947 27.4756 84.8308 29.89 85.4833C29.89 86.9189 29.8247 87.5388 30.3794 88.5177C30.7383 89.1702 31.5214 89.9859 32.2392 90.1817C32.2392 93.5749 33.4137 93.8685 35.1756 94.7169V126.104C35.8282 126.267 37.8837 127.638 38.8299 127.866V94.4558C39.7435 94.4558 40.1676 94.358 41.0159 94.2927C41.5706 94.2601 42.5168 94.1948 43.1693 94.0969C45.5837 93.738 50.0863 93.7054 51.9134 93.477C52.6639 93.3791 53.3817 93.477 54.1321 93.3465L61.8322 93.2813C66.139 93.2813 70.6742 94.0317 74.8831 94.1622C76.3187 94.1948 77.6564 94.4558 79.2878 94.4558V127.866C79.9077 127.573 80.4624 127.409 81.0823 127.018C81.7022 126.659 82.1916 126.398 82.7789 126.104V94.7169C83.9209 94.4558 84.345 94.0643 85.0302 93.2813C85.6827 92.5308 85.7154 91.5194 85.7154 90.149C86.5637 89.9533 87.2488 89.2681 87.6404 88.5503C88.1298 87.6693 88.195 86.7558 88.195 85.4507C90.4463 83.9498 89.9569 82.1227 89.9569 78.9905C89.9569 77.4896 88.9781 76.315 87.934 75.5972C87.3467 75.2057 87.4446 75.1078 87.3467 74.2595C87.0531 72.0082 86.4658 70.1811 85.748 68.3866C83.4641 62.6116 78.9289 57.6196 73.7085 54.4874C66.0085 49.8543 56.4486 49.0712 47.9655 52.6602C46.3342 53.3454 45.0291 54.0306 43.6261 54.9115C42.2231 55.7925 39.3193 58.0764 38.1121 59.3815L35.1104 63.101C33.0875 65.7764 30.6078 71.4862 30.6078 75.3036L30.6404 75.3689Z" fill="#6B3420"/>
<path fill-rule="evenodd" clip-rule="evenodd" d="M45.1594 130.314C46.2361 130.575 47.1497 130.868 48.2916 131.129C51.8154 131.912 55.3392 132.369 59.0913 132.369C59.7112 132.369 67.7702 124.18 68.6511 123.168L76.3511 114.457C76.71 114 77.2647 113.772 77.2647 113.021V96.1529L75.5028 95.9897C75.3723 96.4792 74.2304 97.8821 73.8715 98.3715L70.413 102.972C70.0541 103.429 69.8583 103.69 69.532 104.114C69.1731 104.538 68.9121 104.864 68.6185 105.256C68.0638 105.974 67.4439 106.659 66.824 107.409C66.1714 108.16 65.6168 108.91 64.9316 109.628L57.1663 117.981C56.3832 118.764 56.1548 119.286 55.2086 119.971L49.0421 125.942C48.2916 126.692 47.8022 127.312 47.0518 128.062C46.6929 128.421 45.2899 129.922 45.1921 130.314H45.1594Z" fill="#6B3420"/>
<path fill-rule="evenodd" clip-rule="evenodd" d="M40.7549 119.481C41.179 119.318 42.9409 116.643 43.2346 116.219L48.357 109.889C48.6507 109.563 48.7812 109.497 49.0749 109.139C50.4452 107.344 55.3067 102.515 56.8075 101.014C57.7537 100.068 58.6999 99.024 59.6787 98.1431L61.2122 96.7401C61.7343 96.2181 62.2563 95.8265 62.6478 95.2393L48.716 95.5329C47.9982 95.5329 46.5952 95.5655 45.9426 95.696C45.5185 95.7613 45.3553 95.9897 45.0943 96.316L43.0714 98.6978C42.6146 99.2524 42.2557 99.7092 41.8316 100.231C41.6032 100.525 41.4074 100.721 41.179 101.047C40.8854 101.438 40.8201 101.471 40.7875 102.124C40.7223 103.951 40.7875 106.006 40.7875 107.833C40.7875 111.683 40.7875 115.566 40.7875 119.416L40.7549 119.481Z" fill="#6B3420"/>
<path fill-rule="evenodd" clip-rule="evenodd" d="M74.4915 129.726C75.4703 129.661 76.3512 128.91 77.2648 128.845V125.909C77.069 126.039 74.5893 129.302 74.4915 129.726Z" fill="#6B3420"/>
</g>
<defs>
<clipPath id="clip0_62_2">
<rect width="118.052" height="143.364" fill="white"/>
</clipPath>
</defs>
</svg>
